<?xml version="1.0" encoding="UTF-8" standalone="no"?>
<!-- Created with Inkscape (http://www.inkscape.org/) -->

<svg
   xmlns:dc="http://purl.org/dc/elements/1.1/"
   xmlns:cc="http://creativecommons.org/ns#"
   xmlns:rdf="http://www.w3.org/1999/02/22-rdf-syntax-ns#"
   xmlns:svg="http://www.w3.org/2000/svg"
   xmlns="http://www.w3.org/2000/svg"
   xmlns:xlink="http://www.w3.org/1999/xlink"
   xmlns:sodipodi="http://sodipodi.sourceforge.net/DTD/sodipodi-0.dtd"
   xmlns:inkscape="http://www.inkscape.org/namespaces/inkscape"
   width="250"
   height="100"
   viewBox="0 0 66.145832 26.458334"
   version="1.1"
   id="svg8"
   inkscape:version="0.92.2 (5c3e80d, 2017-08-06)"
   sodipodi:docname="button_repeats_down.svg">
  <defs
     id="defs2">
    <linearGradient
       inkscape:collect="always"
       id="linearGradient944">
      <stop
         style="stop-color:#ffffff;stop-opacity:1;"
         offset="0"
         id="stop940" />
      <stop
         style="stop-color:#ffffff;stop-opacity:0;"
         offset="1"
         id="stop942" />
    </linearGradient>
    <linearGradient
       inkscape:collect="always"
       id="linearGradient831">
      <stop
         style="stop-color:#edd400;stop-opacity:1"
         offset="0"
         id="stop827" />
      <stop
         style="stop-color:#ffffff;stop-opacity:1"
         offset="1"
         id="stop829" />
    </linearGradient>
    <linearGradient
       inkscape:collect="always"
       id="linearGradient1285">
      <stop
         style="stop-color:#000000;stop-opacity:1"
         offset="0"
         id="stop1281" />
      <stop
         style="stop-color:#c4a000;stop-opacity:1"
         offset="1"
         id="stop1283" />
    </linearGradient>
    <linearGradient
       inkscape:collect="always"
       xlink:href="#linearGradient1285"
       id="linearGradient1287"
       x1="119.61172"
       y1="92.681664"
       x2="119.81818"
       y2="67.853958"
       gradientUnits="userSpaceOnUse"
       gradientTransform="matrix(0.26458333,0,0,0.26458333,0.10273328,270.55126)" />
    <linearGradient
       inkscape:collect="always"
       xlink:href="#linearGradient831"
       id="linearGradient833"
       x1="31.744577"
       y1="270.7377"
       x2="31.852734"
       y2="293.63501"
       gradientUnits="userSpaceOnUse" />
    <radialGradient
       inkscape:collect="always"
       xlink:href="#linearGradient944"
       id="radialGradient946"
       cx="31.750002"
       cy="265.58072"
       fx="31.750002"
       fy="265.58072"
       r="33.072918"
       gradientTransform="matrix(1.1199999,-1.5630365e-6,-1.3306327e-7,0.32000019,-3.809965,190.84749)"
       gradientUnits="userSpaceOnUse" />
  </defs>
  <sodipodi:namedview
     id="base"
     pagecolor="#ffffff"
     bordercolor="#666666"
     borderopacity="1.0"
     inkscape:pageopacity="0.0"
     inkscape:pageshadow="2"
     inkscape:zoom="1.6971537"
     inkscape:cx="51.705889"
     inkscape:cy="0.34542425"
     inkscape:document-units="mm"
     inkscape:current-layer="layer1"
     showgrid="true"
     inkscape:window-width="1920"
     inkscape:window-height="1139"
     inkscape:window-x="0"
     inkscape:window-y="0"
     inkscape:window-maximized="1"
     units="px"
     inkscape:snap-global="true">
    <inkscape:grid
       type="xygrid"
       id="grid812"
       spacingx="2.6458333"
       spacingy="2.6458333" />
  </sodipodi:namedview>
  <metadata
     id="metadata5">
    <rdf:RDF>
      <cc:Work
         rdf:about="">
        <dc:format>image/svg+xml</dc:format>
        <dc:type
           rdf:resource="http://purl.org/dc/dcmitype/StillImage" />
        <dc:title />
      </cc:Work>
    </rdf:RDF>
  </metadata>
  <g
     inkscape:label="Layer 1"
     inkscape:groupmode="layer"
     id="layer1"
     transform="translate(0,-270.54165)"
     style="display:inline">
    <g
       id="g901">
      <rect
         ry="12.911174"
         y="270.54166"
         x="-5.2838132e-06"
         height="26.458349"
         width="66.145836"
         id="rect818"
         style="opacity:1;fill:#c4a000;fill-opacity:1;stroke:none;stroke-width:0.079375;stroke-linejoin:bevel;stroke-miterlimit:4;stroke-dasharray:none;stroke-dashoffset:0;stroke-opacity:1" />
      <path
         inkscape:connector-curvature="0"
         id="rect846"
         d="m 0.10273328,283.46262 v 0.63562 c 0,7.15279 5.75856572,12.91135 12.91135572,12.91135 h 40.32312 c 7.15279,0 12.911357,-5.75856 12.911357,-12.91135 v -0.63562 c -11.348906,4.13282 -21.93263,4.94592 -33.082735,4.94543 -11.143658,-4.8e-4 -21.879765,-1.01907 -33.06309772,-4.94543 z"
         style="opacity:0.5;fill:url(#linearGradient1287);fill-opacity:1;stroke:none;stroke-width:0.5;stroke-linejoin:bevel;stroke-miterlimit:4;stroke-dasharray:none;stroke-dashoffset:0;stroke-opacity:1" />
      <path
         inkscape:connector-curvature="0"
         id="path853"
         d="m 1.0211264,290.14562 c 2.1390631,4.1604 6.4668079,6.99544 11.4840536,6.99544 H 52.8283 c 3.039354,0 5.824821,-1.04226 8.025866,-2.78691 -1.966733,1.16612 -4.244166,1.83451 -6.678663,1.83451 H 12.110372 c -4.6106452,0 -8.6633263,-2.38788 -11.0892456,-6.04304 z"
         style="opacity:0.43600003;fill:#ffffff;fill-opacity:1;stroke:none;stroke-width:0.5;stroke-linejoin:bevel;stroke-miterlimit:4;stroke-dasharray:none;stroke-dashoffset:0;stroke-opacity:1" />
      <path
         sodipodi:nodetypes="sscacs"
         inkscape:connector-curvature="0"
         id="rect822"
         d="m 12.911169,270.54166 h 40.323488 c 7.15279,0 12.911174,5.75838 12.911174,12.91117 -11.348904,4.13282 -21.93259,4.94607 -33.082695,4.94558 -11.143658,-4.8e-4 -21.879808,-1.01922 -33.0631412838132,-4.94558 0,-7.15279 5.7583834838132,-12.91117 12.9111742838132,-12.91117 z"
         style="opacity:0.7;fill:url(#linearGradient833);fill-opacity:1;stroke:none;stroke-width:0.079375;stroke-linejoin:bevel;stroke-miterlimit:4;stroke-dasharray:none;stroke-dashoffset:0;stroke-opacity:1" />
      <g
         transform="translate(-2.8850883,36.341018)"
         id="g906"
         style="display:inline">
        <g
           id="g893"
           style="opacity:0.5">
          <g
             transform="matrix(1.3951929,0,0,1.3951929,4.6068752,-87.288711)"
             id="text871"
             style="font-style:normal;font-weight:normal;font-size:10.58333302px;line-height:1.25;font-family:sans-serif;text-align:center;letter-spacing:0px;word-spacing:0px;text-anchor:middle;fill:#000000;fill-opacity:1;stroke:none;stroke-width:0.26458332"
             aria-label="****">
            <path
               inkscape:connector-curvature="0"
               id="path873"
               style="stroke-width:0.26458332"
               d="m 16.863925,238.90589 -1.855184,1.00253 1.855184,1.00769 -0.299723,0.50643 -1.736329,-1.04904 v 1.94821 h -0.589111 v -1.94821 l -1.736328,1.04904 -0.299723,-0.50643 1.855184,-1.00769 -1.855184,-1.00253 0.299723,-0.51159 1.736328,1.04903 v -1.9482 h 0.589111 v 1.9482 l 1.736329,-1.04903 z" />
            <path
               inkscape:connector-curvature="0"
               id="path875"
               style="stroke-width:0.26458332"
               d="m 22.155591,238.90589 -1.855184,1.00253 1.855184,1.00769 -0.299723,0.50643 -1.736328,-1.04904 v 1.94821 h -0.589111 v -1.94821 l -1.736328,1.04904 -0.299724,-0.50643 1.855184,-1.00769 -1.855184,-1.00253 0.299724,-0.51159 1.736328,1.04903 v -1.9482 h 0.589111 v 1.9482 l 1.736328,-1.04903 z" />
            <path
               inkscape:connector-curvature="0"
               id="path877"
               style="stroke-width:0.26458332"
               d="m 27.447258,238.90589 -1.855184,1.00253 1.855184,1.00769 -0.299723,0.50643 -1.736329,-1.04904 v 1.94821 h -0.589111 v -1.94821 l -1.736328,1.04904 -0.299723,-0.50643 1.855184,-1.00769 -1.855184,-1.00253 0.299723,-0.51159 1.736328,1.04903 v -1.9482 h 0.589111 v 1.9482 l 1.736329,-1.04903 z" />
            <path
               inkscape:connector-curvature="0"
               id="path879"
               style="stroke-width:0.26458332"
               d="m 32.738925,238.90589 -1.855184,1.00253 1.855184,1.00769 -0.299723,0.50643 -1.736329,-1.04904 v 1.94821 h -0.589111 v -1.94821 l -1.736328,1.04904 -0.299723,-0.50643 1.855184,-1.00769 -1.855184,-1.00253 0.299723,-0.51159 1.736328,1.04903 v -1.9482 h 0.589111 v 1.9482 l 1.736329,-1.04903 z" />
          </g>
        </g>
        <g
           id="g886"
           transform="translate(-10.577204,-9.0073889)"
           style="opacity:0.6">
          <path
             sodipodi:nodetypes="cccc"
             inkscape:connector-curvature="0"
             id="path841"
             d="m 60.727111,249.82067 c 0.08063,5.01919 -2.574613,11.35608 -6.615994,13.23199 -4.911543,-2.79802 -5.898016,-9.50473 -6.528015,-13.11468 3.71369,2.05991 9.11193,2.86351 13.144009,-0.11727 z"
             style="opacity:1;fill:#8f5902;stroke:#000000;stroke-width:0.26458332;stroke-linecap:butt;stroke-linejoin:round;stroke-miterlimit:4;stroke-dasharray:none;stroke-opacity:1" />
          <path
             style="opacity:1;fill:#204a87;stroke:#000000;stroke-width:0.25664583;stroke-linecap:butt;stroke-linejoin:round;stroke-miterlimit:4;stroke-dasharray:none;stroke-opacity:1"
             d="m 60.180469,250.79618 c -0.244026,4.21543 -2.503247,9.31494 -6.069478,11.67455 -4.120465,-3.09012 -5.099771,-8.31545 -5.791942,-11.53671 3.519214,1.95685 8.538563,2.15942 11.86142,-0.13784 z"
             id="path847"
             inkscape:connector-curvature="0"
             sodipodi:nodetypes="cccc" />
          <circle
             r="2.406455"
             cy="256.04166"
             cx="54.24107"
             id="path843"
             style="opacity:1;fill:#8f5902;fill-opacity:1;stroke:#000000;stroke-width:0.1886204;stroke-linecap:butt;stroke-linejoin:round;stroke-miterlimit:4;stroke-dasharray:none;stroke-dashoffset:0;stroke-opacity:1;paint-order:normal" />
          <circle
             r="1.3980553"
             style="opacity:1;fill:#d3d7cf;fill-opacity:1;stroke:#000000;stroke-width:0.11230112;stroke-linecap:butt;stroke-linejoin:round;stroke-miterlimit:4;stroke-dasharray:none;stroke-dashoffset:0;stroke-opacity:1;paint-order:normal"
             id="ellipse845"
             cx="54.259033"
             cy="256.10266" />
        </g>
      </g>
      <rect
         style="opacity:1;fill:url(#radialGradient946);fill-opacity:1;stroke:none;stroke-width:0.5;stroke-linejoin:bevel;stroke-miterlimit:4;stroke-dasharray:none;stroke-dashoffset:0;stroke-opacity:1"
         id="rect938"
         width="66.145836"
         height="26.458349"
         x="-5.2838132e-06"
         y="270.54166"
         ry="12.911174" />
    </g>
  </g>
</svg>
