<?xml version="1.0" encoding="UTF-8" standalone="no"?>
<!-- Created with Inkscape (http://www.inkscape.org/) -->

<svg
   xmlns:dc="http://purl.org/dc/elements/1.1/"
   xmlns:cc="http://creativecommons.org/ns#"
   xmlns:rdf="http://www.w3.org/1999/02/22-rdf-syntax-ns#"
   xmlns:svg="http://www.w3.org/2000/svg"
   xmlns="http://www.w3.org/2000/svg"
   xmlns:xlink="http://www.w3.org/1999/xlink"
   xmlns:sodipodi="http://sodipodi.sourceforge.net/DTD/sodipodi-0.dtd"
   xmlns:inkscape="http://www.inkscape.org/namespaces/inkscape"
   width="250"
   height="100"
   viewBox="0 0 66.145832 26.458334"
   version="1.1"
   id="svg8"
   inkscape:version="0.92.2 (5c3e80d, 2017-08-06)"
   sodipodi:docname="button_escape_down.svg">
  <defs
     id="defs2">
    <linearGradient
       inkscape:collect="always"
       id="linearGradient931">
      <stop
         style="stop-color:#ffffff;stop-opacity:1"
         offset="0"
         id="stop927" />
      <stop
         style="stop-color:#edd400;stop-opacity:0;"
         offset="1"
         id="stop929" />
    </linearGradient>
    <linearGradient
       inkscape:collect="always"
       id="linearGradient840">
      <stop
         style="stop-color:#ffffff;stop-opacity:0.5"
         offset="0"
         id="stop836" />
      <stop
         style="stop-color:#ffffff;stop-opacity:0;"
         offset="1"
         id="stop838" />
    </linearGradient>
    <linearGradient
       inkscape:collect="always"
       xlink:href="#linearGradient840"
       id="linearGradient842"
       x1="31.75"
       y1="273.18747"
       x2="31.75"
       y2="283.77081"
       gradientUnits="userSpaceOnUse" />
    <radialGradient
       inkscape:collect="always"
       xlink:href="#linearGradient931"
       id="radialGradient933"
       cx="31.749998"
       cy="312.31027"
       fx="31.749998"
       fy="312.31027"
       r="33.322918"
       gradientTransform="matrix(1.1115973,-2.9103812e-8,1.4551903e-8,0.55579822,-3.5432178,120.77265)"
       gradientUnits="userSpaceOnUse" />
  </defs>
  <sodipodi:namedview
     id="base"
     pagecolor="#ffffff"
     bordercolor="#666666"
     borderopacity="1.0"
     inkscape:pageopacity="0.0"
     inkscape:pageshadow="2"
     inkscape:zoom="3.7349325"
     inkscape:cx="76.233884"
     inkscape:cy="52.60174"
     inkscape:document-units="mm"
     inkscape:current-layer="layer1"
     showgrid="true"
     inkscape:window-width="1920"
     inkscape:window-height="1139"
     inkscape:window-x="0"
     inkscape:window-y="0"
     inkscape:window-maximized="1"
     units="px"
     inkscape:snap-global="true">
    <inkscape:grid
       type="xygrid"
       id="grid812"
       spacingx="2.6458333"
       spacingy="2.6458333" />
  </sodipodi:namedview>
  <metadata
     id="metadata5">
    <rdf:RDF>
      <cc:Work
         rdf:about="">
        <dc:format>image/svg+xml</dc:format>
        <dc:type
           rdf:resource="http://purl.org/dc/dcmitype/StillImage" />
        <dc:title />
      </cc:Work>
    </rdf:RDF>
  </metadata>
  <g
     inkscape:label="Layer 1"
     inkscape:groupmode="layer"
     id="layer1"
     transform="translate(0,-270.54165)">
    <rect
       style="opacity:1;fill:#edd400;fill-opacity:1;stroke:none;stroke-width:0.5;stroke-linejoin:bevel;stroke-miterlimit:4;stroke-dasharray:none;stroke-dashoffset:0;stroke-opacity:1"
       id="rect818"
       width="66.145836"
       height="26.458349"
       x="-5.2838132e-06"
       y="270.54166"
       ry="12.911174" />
    <g
       aria-label="%FF"
       style="font-style:normal;font-weight:normal;font-size:10.58333302px;line-height:1.25;font-family:sans-serif;text-align:center;letter-spacing:0px;word-spacing:0px;text-anchor:middle;opacity:0.5;fill:#000000;fill-opacity:1;stroke:none;stroke-width:0.26458332"
       id="text1227"
       transform="translate(59.041023,-8.8757489)">
      <path
         d="m -29.383922,293.10391 q -0.449585,0 -0.707967,0.38241 -0.253214,0.3824 -0.253214,1.06453 0,0.6718 0.253214,1.05937 0.258382,0.3824 0.707967,0.3824 0.43925,0 0.692464,-0.3824 0.258382,-0.38757 0.258382,-1.05937 0,-0.67696 -0.258382,-1.05936 -0.253214,-0.38758 -0.692464,-0.38758 z m 0,-0.65629 q 0.816488,0 1.297079,0.56844 0.48059,0.56844 0.48059,1.53479 0,0.96635 -0.485758,1.53479 -0.480591,0.56328 -1.291911,0.56328 -0.826823,0 -1.307414,-0.56328 -0.48059,-0.56844 -0.48059,-1.53479 0,-0.97151 0.48059,-1.53479 0.485759,-0.56844 1.307414,-0.56844 z m -5.333007,-3.14709 q -0.444418,0 -0.7028,0.38757 -0.253214,0.38241 -0.253214,1.0542 0,0.68213 0.253214,1.06453 0.253215,0.38241 0.7028,0.38241 0.449584,0 0.702799,-0.38241 0.258382,-0.3824 0.258382,-1.06453 0,-0.66663 -0.258382,-1.0542 -0.258382,-0.38757 -0.702799,-0.38757 z m 4.666381,-0.65629 h 0.826823 l -4.826579,8.00468 h -0.826822 z m -4.666381,0 q 0.816487,0 1.302246,0.56844 0.485758,0.56327 0.485758,1.52962 0,0.97668 -0.485758,1.53996 -0.480591,0.56327 -1.302246,0.56327 -0.821656,0 -1.302247,-0.56327 -0.475423,-0.56844 -0.475423,-1.53996 0,-0.96118 0.480591,-1.52962 0.480591,-0.56844 1.297079,-0.56844 z"
         style="stroke-width:0.26458332"
         id="path1229"
         inkscape:connector-curvature="0" />
      <path
         d="m -25.973278,288.78376 h 4.433838 v 0.8785 h -3.389974 v 2.27377 h 3.059245 v 0.87849 h -3.059245 v 3.68453 h -1.043864 z"
         style="stroke-width:0.26458332"
         id="path1231"
         inkscape:connector-curvature="0" />
      <path
         d="m -19.875459,288.78376 h 4.433837 v 0.8785 h -3.389973 v 2.27377 h 3.059244 v 0.87849 h -3.059244 v 3.68453 h -1.043864 z"
         style="stroke-width:0.26458332"
         id="path1233"
         inkscape:connector-curvature="0" />
    </g>
    <rect
       ry="12.911174"
       y="270.54166"
       x="-5.2838132e-06"
       height="26.458349"
       width="66.145836"
       id="rect925"
       style="opacity:1;fill:url(#radialGradient933);fill-opacity:1;stroke:none;stroke-width:0.5;stroke-linejoin:bevel;stroke-miterlimit:4;stroke-dasharray:none;stroke-dashoffset:0;stroke-opacity:1" />
    <path
       style="opacity:1;fill:url(#linearGradient842);fill-opacity:1;stroke:none;stroke-width:0.42895228;stroke-linejoin:bevel;stroke-miterlimit:4;stroke-dasharray:none;stroke-dashoffset:0;stroke-opacity:1"
       d="m 12.974777,273.18747 h 40.196277 c 5.722235,0 10.328894,4.60671 10.328943,10.32894 l 2e-6,0.25441 c -2.645833,0 -4.60671,-0.0166 -10.328945,-0.0166 0,0 -26.797522,-0.0108 -40.196277,0 -3.4429846,0.003 -7.6831104,0.0166 -10.3289437,0.0166 l 0,-0.25441 c 0,-5.72223 4.6067086,-10.32894 10.3289437,-10.32894 z"
       id="rect833"
       inkscape:connector-curvature="0"
       sodipodi:nodetypes="ssscsacss" />
  </g>
</svg>
