<?xml version="1.0" encoding="UTF-8" standalone="no"?>
<!-- Created with Inkscape (http://www.inkscape.org/) -->

<svg
   xmlns:dc="http://purl.org/dc/elements/1.1/"
   xmlns:cc="http://creativecommons.org/ns#"
   xmlns:rdf="http://www.w3.org/1999/02/22-rdf-syntax-ns#"
   xmlns:svg="http://www.w3.org/2000/svg"
   xmlns="http://www.w3.org/2000/svg"
   xmlns:xlink="http://www.w3.org/1999/xlink"
   xmlns:sodipodi="http://sodipodi.sourceforge.net/DTD/sodipodi-0.dtd"
   xmlns:inkscape="http://www.inkscape.org/namespaces/inkscape"
   width="250"
   height="100"
   viewBox="0 0 66.145832 26.458334"
   version="1.1"
   id="svg8"
   inkscape:version="0.92.2 (5c3e80d, 2017-08-06)"
   sodipodi:docname="button_message_down.svg">
  <defs
     id="defs2">
    <linearGradient
       inkscape:collect="always"
       id="linearGradient931">
      <stop
         style="stop-color:#ffffff;stop-opacity:1"
         offset="0"
         id="stop927" />
      <stop
         style="stop-color:#edd400;stop-opacity:0;"
         offset="1"
         id="stop929" />
    </linearGradient>
    <linearGradient
       inkscape:collect="always"
       id="linearGradient840">
      <stop
         style="stop-color:#ffffff;stop-opacity:0.5"
         offset="0"
         id="stop836" />
      <stop
         style="stop-color:#ffffff;stop-opacity:0;"
         offset="1"
         id="stop838" />
    </linearGradient>
    <linearGradient
       inkscape:collect="always"
       xlink:href="#linearGradient840"
       id="linearGradient842"
       x1="31.75"
       y1="273.18747"
       x2="31.75"
       y2="283.77081"
       gradientUnits="userSpaceOnUse" />
    <radialGradient
       inkscape:collect="always"
       xlink:href="#linearGradient931"
       id="radialGradient933"
       cx="31.749998"
       cy="312.31027"
       fx="31.749998"
       fy="312.31027"
       r="33.322918"
       gradientTransform="matrix(1.1115973,-2.9103812e-8,1.4551903e-8,0.55579822,-3.5432178,120.77265)"
       gradientUnits="userSpaceOnUse" />
  </defs>
  <sodipodi:namedview
     id="base"
     pagecolor="#ffffff"
     bordercolor="#666666"
     borderopacity="1.0"
     inkscape:pageopacity="0.0"
     inkscape:pageshadow="2"
     inkscape:zoom="5.64"
     inkscape:cx="125"
     inkscape:cy="50"
     inkscape:document-units="mm"
     inkscape:current-layer="layer1"
     showgrid="true"
     inkscape:window-width="1920"
     inkscape:window-height="1139"
     inkscape:window-x="0"
     inkscape:window-y="0"
     inkscape:window-maximized="1"
     units="px"
     inkscape:snap-global="true">
    <inkscape:grid
       type="xygrid"
       id="grid812"
       spacingx="2.6458333"
       spacingy="2.6458333" />
  </sodipodi:namedview>
  <metadata
     id="metadata5">
    <rdf:RDF>
      <cc:Work
         rdf:about="">
        <dc:format>image/svg+xml</dc:format>
        <dc:type
           rdf:resource="http://purl.org/dc/dcmitype/StillImage" />
        <dc:title />
      </cc:Work>
    </rdf:RDF>
  </metadata>
  <g
     inkscape:label="Layer 1"
     inkscape:groupmode="layer"
     id="layer1"
     transform="translate(0,-270.54165)">
    <rect
       style="opacity:1;fill:#edd400;fill-opacity:1;stroke:none;stroke-width:0.5;stroke-linejoin:bevel;stroke-miterlimit:4;stroke-dasharray:none;stroke-dashoffset:0;stroke-opacity:1"
       id="rect818"
       width="66.145836"
       height="26.458349"
       x="-5.2838132e-06"
       y="270.54166"
       ry="12.911174" />
    <g
       id="g1829">
      <g
         id="g1625">
        <rect
           ry="2.6661446"
           y="275.77826"
           x="21.434063"
           height="13.088431"
           width="23.315231"
           id="rect822"
           style="opacity:0.5;fill:#ffffff;fill-opacity:1;stroke:#000000;stroke-width:0.60627425;stroke-linejoin:bevel;stroke-miterlimit:4;stroke-dasharray:none;stroke-dashoffset:0;stroke-opacity:1" />
        <g
           transform="translate(4.7615354,0.24417932)"
           id="g1027">
          <g
             id="g924"
             transform="translate(-0.60985591,0.33374739)">
            <g
               id="text840"
               style="font-style:normal;font-weight:normal;font-size:0.98839295px;line-height:1.25;font-family:sans-serif;text-align:center;letter-spacing:0px;word-spacing:0px;text-anchor:middle;fill:#000000;fill-opacity:1;stroke:none;stroke-width:0.02470982"
               aria-label="Text text text">
              <path
                 inkscape:connector-curvature="0"
                 id="path1029"
                 style="stroke-width:0.02470982"
                 d="m 18.436392,277.57563 h 0.609542 v 0.0821 h -0.255786 v 0.63849 h -0.09797 v -0.63849 h -0.255786 z" />
              <path
                 inkscape:connector-curvature="0"
                 id="path1031"
                 style="stroke-width:0.02470982"
                 d="m 19.431059,278.00371 v 0.0434 h -0.408291 q 0.0058,0.0917 0.05502,0.13996 0.04971,0.0478 0.138028,0.0478 0.05116,0 0.09893,-0.0125 0.04826,-0.0125 0.09556,-0.0376 v 0.084 q -0.04778,0.0203 -0.09797,0.0309 -0.05019,0.0106 -0.101831,0.0106 -0.129341,0 -0.205111,-0.0753 -0.07529,-0.0753 -0.07529,-0.20366 0,-0.13272 0.07143,-0.21042 0.07191,-0.0782 0.193528,-0.0782 0.109071,0 0.172293,0.0705 0.06371,0.07 0.06371,0.19063 z m -0.0888,-0.0261 q -9.65e-4,-0.0729 -0.04102,-0.11631 -0.03957,-0.0434 -0.10521,-0.0434 -0.07432,0 -0.119205,0.042 -0.0444,0.042 -0.05116,0.11824 z" />
              <path
                 inkscape:connector-curvature="0"
                 id="path1033"
                 style="stroke-width:0.02470982"
                 d="m 20.008748,277.75565 -0.195459,0.26302 0.205594,0.2775 h -0.104727 l -0.157332,-0.21235 -0.157332,0.21235 h -0.104728 l 0.209937,-0.28281 -0.19208,-0.25771 h 0.104727 l 0.143337,0.19256 0.143336,-0.19256 z" />
              <path
                 inkscape:connector-curvature="0"
                 id="path1035"
                 style="stroke-width:0.02470982"
                 d="m 20.232198,277.60217 v 0.15348 h 0.182911 v 0.069 h -0.182911 v 0.29343 q 0,0.0661 0.01786,0.0849 0.01834,0.0188 0.07384,0.0188 h 0.09121 v 0.0743 h -0.09121 q -0.102797,0 -0.141889,-0.0381 -0.03909,-0.0386 -0.03909,-0.13996 v -0.29343 h -0.06515 v -0.069 h 0.06515 v -0.15348 z" />
              <path
                 inkscape:connector-curvature="0"
                 id="path1037"
                 style="stroke-width:0.02470982"
                 d="m 20.934884,277.60217 v 0.15348 h 0.18291 v 0.069 h -0.18291 v 0.29343 q 0,0.0661 0.01786,0.0849 0.01834,0.0188 0.07384,0.0188 h 0.09121 v 0.0743 h -0.09121 q -0.102796,0 -0.141888,-0.0381 -0.03909,-0.0386 -0.03909,-0.13996 v -0.29343 h -0.06515 v -0.069 h 0.06515 v -0.15348 z" />
              <path
                 inkscape:connector-curvature="0"
                 id="path1039"
                 style="stroke-width:0.02470982"
                 d="m 21.697413,278.00371 v 0.0434 h -0.408291 q 0.0058,0.0917 0.05502,0.13996 0.04971,0.0478 0.138028,0.0478 0.05116,0 0.09894,-0.0125 0.04826,-0.0125 0.09556,-0.0376 v 0.084 q -0.04778,0.0203 -0.09797,0.0309 -0.05019,0.0106 -0.101831,0.0106 -0.129341,0 -0.205111,-0.0753 -0.07529,-0.0753 -0.07529,-0.20366 0,-0.13272 0.07143,-0.21042 0.07191,-0.0782 0.193528,-0.0782 0.109071,0 0.172293,0.0705 0.06371,0.07 0.06371,0.19063 z m -0.0888,-0.0261 q -9.66e-4,-0.0729 -0.04102,-0.11631 -0.03957,-0.0434 -0.105209,-0.0434 -0.07432,0 -0.119206,0.042 -0.0444,0.042 -0.05116,0.11824 z" />
              <path
                 inkscape:connector-curvature="0"
                 id="path1041"
                 style="stroke-width:0.02470982"
                 d="m 22.275102,277.75565 -0.195458,0.26302 0.205593,0.2775 H 22.18051 l -0.157332,-0.21235 -0.157332,0.21235 h -0.104728 l 0.209937,-0.28281 -0.19208,-0.25771 h 0.104727 l 0.143337,0.19256 0.143336,-0.19256 z" />
              <path
                 inkscape:connector-curvature="0"
                 id="path1043"
                 style="stroke-width:0.02470982"
                 d="m 22.498552,277.60217 v 0.15348 h 0.182911 v 0.069 h -0.182911 v 0.29343 q 0,0.0661 0.01786,0.0849 0.01834,0.0188 0.07384,0.0188 h 0.09121 v 0.0743 h -0.09121 q -0.102797,0 -0.141889,-0.0381 -0.03909,-0.0386 -0.03909,-0.13996 v -0.29343 h -0.06515 v -0.069 h 0.06515 v -0.15348 z" />
              <path
                 inkscape:connector-curvature="0"
                 id="path1045"
                 style="stroke-width:0.02470982"
                 d="m 23.201238,277.60217 v 0.15348 h 0.182911 v 0.069 h -0.182911 v 0.29343 q 0,0.0661 0.01786,0.0849 0.01834,0.0188 0.07384,0.0188 h 0.09121 v 0.0743 h -0.09121 q -0.102797,0 -0.141889,-0.0381 -0.03909,-0.0386 -0.03909,-0.13996 v -0.29343 h -0.06515 v -0.069 h 0.06515 v -0.15348 z" />
              <path
                 inkscape:connector-curvature="0"
                 id="path1047"
                 style="stroke-width:0.02470982"
                 d="m 23.963768,278.00371 v 0.0434 h -0.408291 q 0.0058,0.0917 0.05502,0.13996 0.04971,0.0478 0.138027,0.0478 0.05116,0 0.09894,-0.0125 0.04826,-0.0125 0.09556,-0.0376 v 0.084 q -0.04778,0.0203 -0.09797,0.0309 -0.05019,0.0106 -0.101832,0.0106 -0.12934,0 -0.205111,-0.0753 -0.07529,-0.0753 -0.07529,-0.20366 0,-0.13272 0.07143,-0.21042 0.07191,-0.0782 0.193528,-0.0782 0.10907,0 0.172293,0.0705 0.06371,0.07 0.06371,0.19063 z m -0.0888,-0.0261 q -9.65e-4,-0.0729 -0.04102,-0.11631 -0.03957,-0.0434 -0.10521,-0.0434 -0.07432,0 -0.119206,0.042 -0.0444,0.042 -0.05116,0.11824 z" />
              <path
                 inkscape:connector-curvature="0"
                 id="path1049"
                 style="stroke-width:0.02470982"
                 d="m 24.541456,277.75565 -0.195458,0.26302 0.205593,0.2775 h -0.104727 l -0.157332,-0.21235 -0.157332,0.21235 h -0.104727 l 0.209937,-0.28281 -0.19208,-0.25771 h 0.104727 l 0.143336,0.19256 0.143336,-0.19256 z" />
              <path
                 inkscape:connector-curvature="0"
                 id="path1051"
                 style="stroke-width:0.02470982"
                 d="m 24.764906,277.60217 v 0.15348 h 0.182911 v 0.069 h -0.182911 v 0.29343 q 0,0.0661 0.01786,0.0849 0.01834,0.0188 0.07384,0.0188 h 0.09121 v 0.0743 h -0.09121 q -0.102797,0 -0.141889,-0.0381 -0.03909,-0.0386 -0.03909,-0.13996 v -0.29343 h -0.06515 v -0.069 h 0.06515 v -0.15348 z" />
            </g>
            <g
               id="text848"
               style="font-style:normal;font-weight:normal;font-size:0.98839295px;line-height:1.25;font-family:sans-serif;text-align:center;letter-spacing:0px;word-spacing:0px;text-anchor:middle;fill:#000000;fill-opacity:1;stroke:none;stroke-width:0.02470982"
               aria-label="Text text text">
              <path
                 inkscape:connector-curvature="0"
                 id="path1054"
                 style="stroke-width:0.02470982"
                 d="m 18.436392,279.47645 h 0.609542 v 0.082 h -0.255786 v 0.6385 h -0.09797 v -0.6385 h -0.255786 z" />
              <path
                 inkscape:connector-curvature="0"
                 id="path1056"
                 style="stroke-width:0.02470982"
                 d="m 19.431059,279.90453 v 0.0434 h -0.408291 q 0.0058,0.0917 0.05502,0.13996 0.04971,0.0478 0.138028,0.0478 0.05116,0 0.09893,-0.0125 0.04826,-0.0126 0.09556,-0.0376 v 0.084 q -0.04778,0.0203 -0.09797,0.0309 -0.05019,0.0106 -0.101831,0.0106 -0.129341,0 -0.205111,-0.0753 -0.07529,-0.0753 -0.07529,-0.20366 0,-0.13272 0.07143,-0.21042 0.07191,-0.0782 0.193528,-0.0782 0.109071,0 0.172293,0.0705 0.06371,0.07 0.06371,0.19064 z m -0.0888,-0.0261 q -9.65e-4,-0.0729 -0.04102,-0.11631 -0.03957,-0.0434 -0.10521,-0.0434 -0.07432,0 -0.119205,0.042 -0.0444,0.042 -0.05116,0.11824 z" />
              <path
                 inkscape:connector-curvature="0"
                 id="path1058"
                 style="stroke-width:0.02470982"
                 d="m 20.008748,279.65646 -0.195459,0.26303 0.205594,0.2775 h -0.104727 l -0.157332,-0.21235 -0.157332,0.21235 h -0.104728 l 0.209937,-0.28281 -0.19208,-0.25772 h 0.104727 l 0.143337,0.19257 0.143336,-0.19257 z" />
              <path
                 inkscape:connector-curvature="0"
                 id="path1060"
                 style="stroke-width:0.02470982"
                 d="m 20.232198,279.50299 v 0.15347 h 0.182911 v 0.069 h -0.182911 v 0.29343 q 0,0.0661 0.01786,0.0849 0.01834,0.0188 0.07384,0.0188 h 0.09121 v 0.0743 h -0.09121 q -0.102797,0 -0.141889,-0.0381 -0.03909,-0.0386 -0.03909,-0.13995 v -0.29343 h -0.06515 v -0.069 h 0.06515 v -0.15347 z" />
              <path
                 inkscape:connector-curvature="0"
                 id="path1062"
                 style="stroke-width:0.02470982"
                 d="m 20.934884,279.50299 v 0.15347 h 0.18291 v 0.069 h -0.18291 v 0.29343 q 0,0.0661 0.01786,0.0849 0.01834,0.0188 0.07384,0.0188 h 0.09121 v 0.0743 h -0.09121 q -0.102796,0 -0.141888,-0.0381 -0.03909,-0.0386 -0.03909,-0.13995 v -0.29343 h -0.06515 v -0.069 h 0.06515 v -0.15347 z" />
              <path
                 inkscape:connector-curvature="0"
                 id="path1064"
                 style="stroke-width:0.02470982"
                 d="m 21.697413,279.90453 v 0.0434 h -0.408291 q 0.0058,0.0917 0.05502,0.13996 0.04971,0.0478 0.138028,0.0478 0.05116,0 0.09894,-0.0125 0.04826,-0.0126 0.09556,-0.0376 v 0.084 q -0.04778,0.0203 -0.09797,0.0309 -0.05019,0.0106 -0.101831,0.0106 -0.129341,0 -0.205111,-0.0753 -0.07529,-0.0753 -0.07529,-0.20366 0,-0.13272 0.07143,-0.21042 0.07191,-0.0782 0.193528,-0.0782 0.109071,0 0.172293,0.0705 0.06371,0.07 0.06371,0.19064 z m -0.0888,-0.0261 q -9.66e-4,-0.0729 -0.04102,-0.11631 -0.03957,-0.0434 -0.105209,-0.0434 -0.07432,0 -0.119206,0.042 -0.0444,0.042 -0.05116,0.11824 z" />
              <path
                 inkscape:connector-curvature="0"
                 id="path1066"
                 style="stroke-width:0.02470982"
                 d="m 22.275102,279.65646 -0.195458,0.26303 0.205593,0.2775 H 22.18051 l -0.157332,-0.21235 -0.157332,0.21235 h -0.104728 l 0.209937,-0.28281 -0.19208,-0.25772 h 0.104727 l 0.143337,0.19257 0.143336,-0.19257 z" />
              <path
                 inkscape:connector-curvature="0"
                 id="path1068"
                 style="stroke-width:0.02470982"
                 d="m 22.498552,279.50299 v 0.15347 h 0.182911 v 0.069 h -0.182911 v 0.29343 q 0,0.0661 0.01786,0.0849 0.01834,0.0188 0.07384,0.0188 h 0.09121 v 0.0743 h -0.09121 q -0.102797,0 -0.141889,-0.0381 -0.03909,-0.0386 -0.03909,-0.13995 v -0.29343 h -0.06515 v -0.069 h 0.06515 v -0.15347 z" />
              <path
                 inkscape:connector-curvature="0"
                 id="path1070"
                 style="stroke-width:0.02470982"
                 d="m 23.201238,279.50299 v 0.15347 h 0.182911 v 0.069 h -0.182911 v 0.29343 q 0,0.0661 0.01786,0.0849 0.01834,0.0188 0.07384,0.0188 h 0.09121 v 0.0743 h -0.09121 q -0.102797,0 -0.141889,-0.0381 -0.03909,-0.0386 -0.03909,-0.13995 v -0.29343 h -0.06515 v -0.069 h 0.06515 v -0.15347 z" />
              <path
                 inkscape:connector-curvature="0"
                 id="path1072"
                 style="stroke-width:0.02470982"
                 d="m 23.963768,279.90453 v 0.0434 h -0.408291 q 0.0058,0.0917 0.05502,0.13996 0.04971,0.0478 0.138027,0.0478 0.05116,0 0.09894,-0.0125 0.04826,-0.0126 0.09556,-0.0376 v 0.084 q -0.04778,0.0203 -0.09797,0.0309 -0.05019,0.0106 -0.101832,0.0106 -0.12934,0 -0.205111,-0.0753 -0.07529,-0.0753 -0.07529,-0.20366 0,-0.13272 0.07143,-0.21042 0.07191,-0.0782 0.193528,-0.0782 0.10907,0 0.172293,0.0705 0.06371,0.07 0.06371,0.19064 z m -0.0888,-0.0261 q -9.65e-4,-0.0729 -0.04102,-0.11631 -0.03957,-0.0434 -0.10521,-0.0434 -0.07432,0 -0.119206,0.042 -0.0444,0.042 -0.05116,0.11824 z" />
              <path
                 inkscape:connector-curvature="0"
                 id="path1074"
                 style="stroke-width:0.02470982"
                 d="m 24.541456,279.65646 -0.195458,0.26303 0.205593,0.2775 h -0.104727 l -0.157332,-0.21235 -0.157332,0.21235 h -0.104727 l 0.209937,-0.28281 -0.19208,-0.25772 h 0.104727 l 0.143336,0.19257 0.143336,-0.19257 z" />
              <path
                 inkscape:connector-curvature="0"
                 id="path1076"
                 style="stroke-width:0.02470982"
                 d="m 24.764906,279.50299 v 0.15347 h 0.182911 v 0.069 h -0.182911 v 0.29343 q 0,0.0661 0.01786,0.0849 0.01834,0.0188 0.07384,0.0188 h 0.09121 v 0.0743 h -0.09121 q -0.102797,0 -0.141889,-0.0381 -0.03909,-0.0386 -0.03909,-0.13995 v -0.29343 h -0.06515 v -0.069 h 0.06515 v -0.15347 z" />
            </g>
            <g
               id="text856"
               style="font-style:normal;font-weight:normal;font-size:0.98839295px;line-height:1.25;font-family:sans-serif;text-align:center;letter-spacing:0px;word-spacing:0px;text-anchor:middle;fill:#000000;fill-opacity:1;stroke:none;stroke-width:0.02470982"
               aria-label="Text text text">
              <path
                 inkscape:connector-curvature="0"
                 id="path1079"
                 style="stroke-width:0.02470982"
                 d="m 18.436392,281.37727 h 0.609542 v 0.082 h -0.255786 v 0.6385 h -0.09797 v -0.6385 h -0.255786 z" />
              <path
                 inkscape:connector-curvature="0"
                 id="path1081"
                 style="stroke-width:0.02470982"
                 d="m 19.431059,281.80534 v 0.0434 h -0.408291 q 0.0058,0.0917 0.05502,0.13996 0.04971,0.0478 0.138028,0.0478 0.05116,0 0.09893,-0.0125 0.04826,-0.0126 0.09556,-0.0376 v 0.084 q -0.04778,0.0203 -0.09797,0.0309 -0.05019,0.0106 -0.101831,0.0106 -0.129341,0 -0.205111,-0.0753 -0.07529,-0.0753 -0.07529,-0.20367 0,-0.13271 0.07143,-0.21042 0.07191,-0.0782 0.193528,-0.0782 0.109071,0 0.172293,0.0705 0.06371,0.07 0.06371,0.19063 z m -0.0888,-0.0261 q -9.65e-4,-0.0729 -0.04102,-0.11631 -0.03957,-0.0434 -0.10521,-0.0434 -0.07432,0 -0.119205,0.042 -0.0444,0.042 -0.05116,0.11824 z" />
              <path
                 inkscape:connector-curvature="0"
                 id="path1083"
                 style="stroke-width:0.02470982"
                 d="m 20.008748,281.55728 -0.195459,0.26303 0.205594,0.2775 h -0.104727 l -0.157332,-0.21235 -0.157332,0.21235 h -0.104728 l 0.209937,-0.28281 -0.19208,-0.25772 h 0.104727 l 0.143337,0.19256 0.143336,-0.19256 z" />
              <path
                 inkscape:connector-curvature="0"
                 id="path1085"
                 style="stroke-width:0.02470982"
                 d="m 20.232198,281.40381 v 0.15347 h 0.182911 v 0.069 h -0.182911 v 0.29342 q 0,0.0661 0.01786,0.0849 0.01834,0.0188 0.07384,0.0188 h 0.09121 v 0.0743 h -0.09121 q -0.102797,0 -0.141889,-0.0381 -0.03909,-0.0386 -0.03909,-0.13996 v -0.29342 h -0.06515 v -0.069 h 0.06515 v -0.15347 z" />
              <path
                 inkscape:connector-curvature="0"
                 id="path1087"
                 style="stroke-width:0.02470982"
                 d="m 20.934884,281.40381 v 0.15347 h 0.18291 v 0.069 h -0.18291 v 0.29342 q 0,0.0661 0.01786,0.0849 0.01834,0.0188 0.07384,0.0188 h 0.09121 v 0.0743 h -0.09121 q -0.102796,0 -0.141888,-0.0381 -0.03909,-0.0386 -0.03909,-0.13996 v -0.29342 h -0.06515 v -0.069 h 0.06515 v -0.15347 z" />
              <path
                 inkscape:connector-curvature="0"
                 id="path1089"
                 style="stroke-width:0.02470982"
                 d="m 21.697413,281.80534 v 0.0434 h -0.408291 q 0.0058,0.0917 0.05502,0.13996 0.04971,0.0478 0.138028,0.0478 0.05116,0 0.09894,-0.0125 0.04826,-0.0126 0.09556,-0.0376 v 0.084 q -0.04778,0.0203 -0.09797,0.0309 -0.05019,0.0106 -0.101831,0.0106 -0.129341,0 -0.205111,-0.0753 -0.07529,-0.0753 -0.07529,-0.20367 0,-0.13271 0.07143,-0.21042 0.07191,-0.0782 0.193528,-0.0782 0.109071,0 0.172293,0.0705 0.06371,0.07 0.06371,0.19063 z m -0.0888,-0.0261 q -9.66e-4,-0.0729 -0.04102,-0.11631 -0.03957,-0.0434 -0.105209,-0.0434 -0.07432,0 -0.119206,0.042 -0.0444,0.042 -0.05116,0.11824 z" />
              <path
                 inkscape:connector-curvature="0"
                 id="path1091"
                 style="stroke-width:0.02470982"
                 d="m 22.275102,281.55728 -0.195458,0.26303 0.205593,0.2775 H 22.18051 l -0.157332,-0.21235 -0.157332,0.21235 h -0.104728 l 0.209937,-0.28281 -0.19208,-0.25772 h 0.104727 l 0.143337,0.19256 0.143336,-0.19256 z" />
              <path
                 inkscape:connector-curvature="0"
                 id="path1093"
                 style="stroke-width:0.02470982"
                 d="m 22.498552,281.40381 v 0.15347 h 0.182911 v 0.069 h -0.182911 v 0.29342 q 0,0.0661 0.01786,0.0849 0.01834,0.0188 0.07384,0.0188 h 0.09121 v 0.0743 h -0.09121 q -0.102797,0 -0.141889,-0.0381 -0.03909,-0.0386 -0.03909,-0.13996 v -0.29342 h -0.06515 v -0.069 h 0.06515 v -0.15347 z" />
              <path
                 inkscape:connector-curvature="0"
                 id="path1095"
                 style="stroke-width:0.02470982"
                 d="m 23.201238,281.40381 v 0.15347 h 0.182911 v 0.069 h -0.182911 v 0.29342 q 0,0.0661 0.01786,0.0849 0.01834,0.0188 0.07384,0.0188 h 0.09121 v 0.0743 h -0.09121 q -0.102797,0 -0.141889,-0.0381 -0.03909,-0.0386 -0.03909,-0.13996 v -0.29342 h -0.06515 v -0.069 h 0.06515 v -0.15347 z" />
              <path
                 inkscape:connector-curvature="0"
                 id="path1097"
                 style="stroke-width:0.02470982"
                 d="m 23.963768,281.80534 v 0.0434 h -0.408291 q 0.0058,0.0917 0.05502,0.13996 0.04971,0.0478 0.138027,0.0478 0.05116,0 0.09894,-0.0125 0.04826,-0.0126 0.09556,-0.0376 v 0.084 q -0.04778,0.0203 -0.09797,0.0309 -0.05019,0.0106 -0.101832,0.0106 -0.12934,0 -0.205111,-0.0753 -0.07529,-0.0753 -0.07529,-0.20367 0,-0.13271 0.07143,-0.21042 0.07191,-0.0782 0.193528,-0.0782 0.10907,0 0.172293,0.0705 0.06371,0.07 0.06371,0.19063 z m -0.0888,-0.0261 q -9.65e-4,-0.0729 -0.04102,-0.11631 -0.03957,-0.0434 -0.10521,-0.0434 -0.07432,0 -0.119206,0.042 -0.0444,0.042 -0.05116,0.11824 z" />
              <path
                 inkscape:connector-curvature="0"
                 id="path1099"
                 style="stroke-width:0.02470982"
                 d="m 24.541456,281.55728 -0.195458,0.26303 0.205593,0.2775 h -0.104727 l -0.157332,-0.21235 -0.157332,0.21235 h -0.104727 l 0.209937,-0.28281 -0.19208,-0.25772 h 0.104727 l 0.143336,0.19256 0.143336,-0.19256 z" />
              <path
                 inkscape:connector-curvature="0"
                 id="path1101"
                 style="stroke-width:0.02470982"
                 d="m 24.764906,281.40381 v 0.15347 h 0.182911 v 0.069 h -0.182911 v 0.29342 q 0,0.0661 0.01786,0.0849 0.01834,0.0188 0.07384,0.0188 h 0.09121 v 0.0743 h -0.09121 q -0.102797,0 -0.141889,-0.0381 -0.03909,-0.0386 -0.03909,-0.13996 v -0.29342 h -0.06515 v -0.069 h 0.06515 v -0.15347 z" />
            </g>
            <g
               id="text864"
               style="font-style:normal;font-weight:normal;font-size:0.98839295px;line-height:1.25;font-family:sans-serif;text-align:center;letter-spacing:0px;word-spacing:0px;text-anchor:middle;fill:#000000;fill-opacity:1;stroke:none;stroke-width:0.02470982"
               aria-label="Text text text">
              <path
                 inkscape:connector-curvature="0"
                 id="path1104"
                 style="stroke-width:0.02470982"
                 d="m 18.436392,283.27808 h 0.609542 v 0.0821 h -0.255786 v 0.6385 h -0.09797 v -0.6385 h -0.255786 z" />
              <path
                 inkscape:connector-curvature="0"
                 id="path1106"
                 style="stroke-width:0.02470982"
                 d="m 19.431059,283.70616 v 0.0434 h -0.408291 q 0.0058,0.0917 0.05502,0.13996 0.04971,0.0478 0.138028,0.0478 0.05116,0 0.09893,-0.0125 0.04826,-0.0125 0.09556,-0.0376 v 0.084 q -0.04778,0.0203 -0.09797,0.0309 -0.05019,0.0106 -0.101831,0.0106 -0.129341,0 -0.205111,-0.0753 -0.07529,-0.0753 -0.07529,-0.20366 0,-0.13272 0.07143,-0.21042 0.07191,-0.0782 0.193528,-0.0782 0.109071,0 0.172293,0.0705 0.06371,0.07 0.06371,0.19063 z m -0.0888,-0.0261 q -9.65e-4,-0.0729 -0.04102,-0.11631 -0.03957,-0.0434 -0.10521,-0.0434 -0.07432,0 -0.119205,0.042 -0.0444,0.042 -0.05116,0.11824 z" />
              <path
                 inkscape:connector-curvature="0"
                 id="path1108"
                 style="stroke-width:0.02470982"
                 d="m 20.008748,283.4581 -0.195459,0.26302 0.205594,0.27751 h -0.104727 l -0.157332,-0.21235 -0.157332,0.21235 h -0.104728 l 0.209937,-0.28281 -0.19208,-0.25772 h 0.104727 l 0.143337,0.19256 0.143336,-0.19256 z" />
              <path
                 inkscape:connector-curvature="0"
                 id="path1110"
                 style="stroke-width:0.02470982"
                 d="m 20.232198,283.30463 v 0.15347 h 0.182911 v 0.069 h -0.182911 v 0.29343 q 0,0.0661 0.01786,0.0849 0.01834,0.0188 0.07384,0.0188 h 0.09121 v 0.0743 h -0.09121 q -0.102797,0 -0.141889,-0.0381 -0.03909,-0.0386 -0.03909,-0.13996 v -0.29343 h -0.06515 v -0.069 h 0.06515 v -0.15347 z" />
              <path
                 inkscape:connector-curvature="0"
                 id="path1112"
                 style="stroke-width:0.02470982"
                 d="m 20.934884,283.30463 v 0.15347 h 0.18291 v 0.069 h -0.18291 v 0.29343 q 0,0.0661 0.01786,0.0849 0.01834,0.0188 0.07384,0.0188 h 0.09121 v 0.0743 h -0.09121 q -0.102796,0 -0.141888,-0.0381 -0.03909,-0.0386 -0.03909,-0.13996 v -0.29343 h -0.06515 v -0.069 h 0.06515 v -0.15347 z" />
              <path
                 inkscape:connector-curvature="0"
                 id="path1114"
                 style="stroke-width:0.02470982"
                 d="m 21.697413,283.70616 v 0.0434 h -0.408291 q 0.0058,0.0917 0.05502,0.13996 0.04971,0.0478 0.138028,0.0478 0.05116,0 0.09894,-0.0125 0.04826,-0.0125 0.09556,-0.0376 v 0.084 q -0.04778,0.0203 -0.09797,0.0309 -0.05019,0.0106 -0.101831,0.0106 -0.129341,0 -0.205111,-0.0753 -0.07529,-0.0753 -0.07529,-0.20366 0,-0.13272 0.07143,-0.21042 0.07191,-0.0782 0.193528,-0.0782 0.109071,0 0.172293,0.0705 0.06371,0.07 0.06371,0.19063 z m -0.0888,-0.0261 q -9.66e-4,-0.0729 -0.04102,-0.11631 -0.03957,-0.0434 -0.105209,-0.0434 -0.07432,0 -0.119206,0.042 -0.0444,0.042 -0.05116,0.11824 z" />
              <path
                 inkscape:connector-curvature="0"
                 id="path1116"
                 style="stroke-width:0.02470982"
                 d="m 22.275102,283.4581 -0.195458,0.26302 0.205593,0.27751 H 22.18051 l -0.157332,-0.21235 -0.157332,0.21235 h -0.104728 l 0.209937,-0.28281 -0.19208,-0.25772 h 0.104727 l 0.143337,0.19256 0.143336,-0.19256 z" />
              <path
                 inkscape:connector-curvature="0"
                 id="path1118"
                 style="stroke-width:0.02470982"
                 d="m 22.498552,283.30463 v 0.15347 h 0.182911 v 0.069 h -0.182911 v 0.29343 q 0,0.0661 0.01786,0.0849 0.01834,0.0188 0.07384,0.0188 h 0.09121 v 0.0743 h -0.09121 q -0.102797,0 -0.141889,-0.0381 -0.03909,-0.0386 -0.03909,-0.13996 v -0.29343 h -0.06515 v -0.069 h 0.06515 v -0.15347 z" />
              <path
                 inkscape:connector-curvature="0"
                 id="path1120"
                 style="stroke-width:0.02470982"
                 d="m 23.201238,283.30463 v 0.15347 h 0.182911 v 0.069 h -0.182911 v 0.29343 q 0,0.0661 0.01786,0.0849 0.01834,0.0188 0.07384,0.0188 h 0.09121 v 0.0743 h -0.09121 q -0.102797,0 -0.141889,-0.0381 -0.03909,-0.0386 -0.03909,-0.13996 v -0.29343 h -0.06515 v -0.069 h 0.06515 v -0.15347 z" />
              <path
                 inkscape:connector-curvature="0"
                 id="path1122"
                 style="stroke-width:0.02470982"
                 d="m 23.963768,283.70616 v 0.0434 h -0.408291 q 0.0058,0.0917 0.05502,0.13996 0.04971,0.0478 0.138027,0.0478 0.05116,0 0.09894,-0.0125 0.04826,-0.0125 0.09556,-0.0376 v 0.084 q -0.04778,0.0203 -0.09797,0.0309 -0.05019,0.0106 -0.101832,0.0106 -0.12934,0 -0.205111,-0.0753 -0.07529,-0.0753 -0.07529,-0.20366 0,-0.13272 0.07143,-0.21042 0.07191,-0.0782 0.193528,-0.0782 0.10907,0 0.172293,0.0705 0.06371,0.07 0.06371,0.19063 z m -0.0888,-0.0261 q -9.65e-4,-0.0729 -0.04102,-0.11631 -0.03957,-0.0434 -0.10521,-0.0434 -0.07432,0 -0.119206,0.042 -0.0444,0.042 -0.05116,0.11824 z" />
              <path
                 inkscape:connector-curvature="0"
                 id="path1124"
                 style="stroke-width:0.02470982"
                 d="m 24.541456,283.4581 -0.195458,0.26302 0.205593,0.27751 h -0.104727 l -0.157332,-0.21235 -0.157332,0.21235 h -0.104727 l 0.209937,-0.28281 -0.19208,-0.25772 h 0.104727 l 0.143336,0.19256 0.143336,-0.19256 z" />
              <path
                 inkscape:connector-curvature="0"
                 id="path1126"
                 style="stroke-width:0.02470982"
                 d="m 24.764906,283.30463 v 0.15347 h 0.182911 v 0.069 h -0.182911 v 0.29343 q 0,0.0661 0.01786,0.0849 0.01834,0.0188 0.07384,0.0188 h 0.09121 v 0.0743 h -0.09121 q -0.102797,0 -0.141889,-0.0381 -0.03909,-0.0386 -0.03909,-0.13996 v -0.29343 h -0.06515 v -0.069 h 0.06515 v -0.15347 z" />
            </g>
            <g
               id="text872"
               style="font-style:normal;font-weight:normal;font-size:0.98839295px;line-height:1.25;font-family:sans-serif;text-align:center;letter-spacing:0px;word-spacing:0px;text-anchor:middle;fill:#000000;fill-opacity:1;stroke:none;stroke-width:0.02470982"
               aria-label="Text text text">
              <path
                 inkscape:connector-curvature="0"
                 id="path1129"
                 style="stroke-width:0.02470982"
                 d="m 18.436392,285.1789 h 0.609542 v 0.082 h -0.255786 v 0.63849 h -0.09797 v -0.63849 h -0.255786 z" />
              <path
                 inkscape:connector-curvature="0"
                 id="path1131"
                 style="stroke-width:0.02470982"
                 d="m 19.431059,285.60698 v 0.0434 h -0.408291 q 0.0058,0.0917 0.05502,0.13995 0.04971,0.0478 0.138028,0.0478 0.05116,0 0.09893,-0.0125 0.04826,-0.0125 0.09556,-0.0376 v 0.084 q -0.04778,0.0203 -0.09797,0.0309 -0.05019,0.0106 -0.101831,0.0106 -0.129341,0 -0.205111,-0.0753 -0.07529,-0.0753 -0.07529,-0.20366 0,-0.13272 0.07143,-0.21042 0.07191,-0.0782 0.193528,-0.0782 0.109071,0 0.172293,0.0705 0.06371,0.07 0.06371,0.19063 z m -0.0888,-0.0261 q -9.65e-4,-0.0729 -0.04102,-0.11631 -0.03957,-0.0434 -0.10521,-0.0434 -0.07432,0 -0.119205,0.042 -0.0444,0.042 -0.05116,0.11824 z" />
              <path
                 inkscape:connector-curvature="0"
                 id="path1133"
                 style="stroke-width:0.02470982"
                 d="m 20.008748,285.35892 -0.195459,0.26302 0.205594,0.2775 h -0.104727 l -0.157332,-0.21235 -0.157332,0.21235 h -0.104728 l 0.209937,-0.28281 -0.19208,-0.25771 h 0.104727 l 0.143337,0.19256 0.143336,-0.19256 z" />
              <path
                 inkscape:connector-curvature="0"
                 id="path1135"
                 style="stroke-width:0.02470982"
                 d="m 20.232198,285.20545 v 0.15347 h 0.182911 v 0.069 h -0.182911 v 0.29343 q 0,0.0661 0.01786,0.0849 0.01834,0.0188 0.07384,0.0188 h 0.09121 v 0.0743 h -0.09121 q -0.102797,0 -0.141889,-0.0381 -0.03909,-0.0386 -0.03909,-0.13996 v -0.29343 h -0.06515 v -0.069 h 0.06515 v -0.15347 z" />
              <path
                 inkscape:connector-curvature="0"
                 id="path1137"
                 style="stroke-width:0.02470982"
                 d="m 20.934884,285.20545 v 0.15347 h 0.18291 v 0.069 h -0.18291 v 0.29343 q 0,0.0661 0.01786,0.0849 0.01834,0.0188 0.07384,0.0188 h 0.09121 v 0.0743 h -0.09121 q -0.102796,0 -0.141888,-0.0381 -0.03909,-0.0386 -0.03909,-0.13996 v -0.29343 h -0.06515 v -0.069 h 0.06515 v -0.15347 z" />
              <path
                 inkscape:connector-curvature="0"
                 id="path1139"
                 style="stroke-width:0.02470982"
                 d="m 21.697413,285.60698 v 0.0434 h -0.408291 q 0.0058,0.0917 0.05502,0.13995 0.04971,0.0478 0.138028,0.0478 0.05116,0 0.09894,-0.0125 0.04826,-0.0125 0.09556,-0.0376 v 0.084 q -0.04778,0.0203 -0.09797,0.0309 -0.05019,0.0106 -0.101831,0.0106 -0.129341,0 -0.205111,-0.0753 -0.07529,-0.0753 -0.07529,-0.20366 0,-0.13272 0.07143,-0.21042 0.07191,-0.0782 0.193528,-0.0782 0.109071,0 0.172293,0.0705 0.06371,0.07 0.06371,0.19063 z m -0.0888,-0.0261 q -9.66e-4,-0.0729 -0.04102,-0.11631 -0.03957,-0.0434 -0.105209,-0.0434 -0.07432,0 -0.119206,0.042 -0.0444,0.042 -0.05116,0.11824 z" />
              <path
                 inkscape:connector-curvature="0"
                 id="path1141"
                 style="stroke-width:0.02470982"
                 d="m 22.275102,285.35892 -0.195458,0.26302 0.205593,0.2775 H 22.18051 l -0.157332,-0.21235 -0.157332,0.21235 h -0.104728 l 0.209937,-0.28281 -0.19208,-0.25771 h 0.104727 l 0.143337,0.19256 0.143336,-0.19256 z" />
              <path
                 inkscape:connector-curvature="0"
                 id="path1143"
                 style="stroke-width:0.02470982"
                 d="m 22.498552,285.20545 v 0.15347 h 0.182911 v 0.069 h -0.182911 v 0.29343 q 0,0.0661 0.01786,0.0849 0.01834,0.0188 0.07384,0.0188 h 0.09121 v 0.0743 h -0.09121 q -0.102797,0 -0.141889,-0.0381 -0.03909,-0.0386 -0.03909,-0.13996 v -0.29343 h -0.06515 v -0.069 h 0.06515 v -0.15347 z" />
              <path
                 inkscape:connector-curvature="0"
                 id="path1145"
                 style="stroke-width:0.02470982"
                 d="m 23.201238,285.20545 v 0.15347 h 0.182911 v 0.069 h -0.182911 v 0.29343 q 0,0.0661 0.01786,0.0849 0.01834,0.0188 0.07384,0.0188 h 0.09121 v 0.0743 h -0.09121 q -0.102797,0 -0.141889,-0.0381 -0.03909,-0.0386 -0.03909,-0.13996 v -0.29343 h -0.06515 v -0.069 h 0.06515 v -0.15347 z" />
              <path
                 inkscape:connector-curvature="0"
                 id="path1147"
                 style="stroke-width:0.02470982"
                 d="m 23.963768,285.60698 v 0.0434 h -0.408291 q 0.0058,0.0917 0.05502,0.13995 0.04971,0.0478 0.138027,0.0478 0.05116,0 0.09894,-0.0125 0.04826,-0.0125 0.09556,-0.0376 v 0.084 q -0.04778,0.0203 -0.09797,0.0309 -0.05019,0.0106 -0.101832,0.0106 -0.12934,0 -0.205111,-0.0753 -0.07529,-0.0753 -0.07529,-0.20366 0,-0.13272 0.07143,-0.21042 0.07191,-0.0782 0.193528,-0.0782 0.10907,0 0.172293,0.0705 0.06371,0.07 0.06371,0.19063 z m -0.0888,-0.0261 q -9.65e-4,-0.0729 -0.04102,-0.11631 -0.03957,-0.0434 -0.10521,-0.0434 -0.07432,0 -0.119206,0.042 -0.0444,0.042 -0.05116,0.11824 z" />
              <path
                 inkscape:connector-curvature="0"
                 id="path1149"
                 style="stroke-width:0.02470982"
                 d="m 24.541456,285.35892 -0.195458,0.26302 0.205593,0.2775 h -0.104727 l -0.157332,-0.21235 -0.157332,0.21235 h -0.104727 l 0.209937,-0.28281 -0.19208,-0.25771 h 0.104727 l 0.143336,0.19256 0.143336,-0.19256 z" />
              <path
                 inkscape:connector-curvature="0"
                 id="path1151"
                 style="stroke-width:0.02470982"
                 d="m 24.764906,285.20545 v 0.15347 h 0.182911 v 0.069 h -0.182911 v 0.29343 q 0,0.0661 0.01786,0.0849 0.01834,0.0188 0.07384,0.0188 h 0.09121 v 0.0743 h -0.09121 q -0.102797,0 -0.141889,-0.0381 -0.03909,-0.0386 -0.03909,-0.13996 v -0.29343 h -0.06515 v -0.069 h 0.06515 v -0.15347 z" />
            </g>
          </g>
          <g
             transform="translate(6.6380383,0.33374641)"
             id="g970">
            <g
               id="text952"
               style="font-style:normal;font-weight:normal;font-size:0.98839295px;line-height:1.25;font-family:sans-serif;text-align:center;letter-spacing:0px;word-spacing:0px;text-anchor:middle;fill:#000000;fill-opacity:1;stroke:none;stroke-width:0.02470982"
               aria-label="Text text text">
              <path
                 inkscape:connector-curvature="0"
                 id="path1154"
                 style="stroke-width:0.02470982"
                 d="m 18.436392,277.57563 h 0.609542 v 0.0821 h -0.255786 v 0.63849 h -0.09797 v -0.63849 h -0.255786 z" />
              <path
                 inkscape:connector-curvature="0"
                 id="path1156"
                 style="stroke-width:0.02470982"
                 d="m 19.431059,278.00371 v 0.0434 h -0.408291 q 0.0058,0.0917 0.05502,0.13996 0.04971,0.0478 0.138028,0.0478 0.05116,0 0.09893,-0.0125 0.04826,-0.0125 0.09556,-0.0376 v 0.084 q -0.04778,0.0203 -0.09797,0.0309 -0.05019,0.0106 -0.101831,0.0106 -0.129341,0 -0.205111,-0.0753 -0.07529,-0.0753 -0.07529,-0.20366 0,-0.13272 0.07143,-0.21042 0.07191,-0.0782 0.193528,-0.0782 0.109071,0 0.172293,0.0705 0.06371,0.07 0.06371,0.19063 z m -0.0888,-0.0261 q -9.65e-4,-0.0729 -0.04102,-0.11631 -0.03957,-0.0434 -0.10521,-0.0434 -0.07432,0 -0.119205,0.042 -0.0444,0.042 -0.05116,0.11824 z" />
              <path
                 inkscape:connector-curvature="0"
                 id="path1158"
                 style="stroke-width:0.02470982"
                 d="m 20.008748,277.75565 -0.195459,0.26302 0.205594,0.2775 h -0.104727 l -0.157332,-0.21235 -0.157332,0.21235 h -0.104728 l 0.209937,-0.28281 -0.19208,-0.25771 h 0.104727 l 0.143337,0.19256 0.143336,-0.19256 z" />
              <path
                 inkscape:connector-curvature="0"
                 id="path1160"
                 style="stroke-width:0.02470982"
                 d="m 20.232198,277.60217 v 0.15348 h 0.182911 v 0.069 h -0.182911 v 0.29343 q 0,0.0661 0.01786,0.0849 0.01834,0.0188 0.07384,0.0188 h 0.09121 v 0.0743 h -0.09121 q -0.102797,0 -0.141889,-0.0381 -0.03909,-0.0386 -0.03909,-0.13996 v -0.29343 h -0.06515 v -0.069 h 0.06515 v -0.15348 z" />
              <path
                 inkscape:connector-curvature="0"
                 id="path1162"
                 style="stroke-width:0.02470982"
                 d="m 20.934884,277.60217 v 0.15348 h 0.18291 v 0.069 h -0.18291 v 0.29343 q 0,0.0661 0.01786,0.0849 0.01834,0.0188 0.07384,0.0188 h 0.09121 v 0.0743 h -0.09121 q -0.102796,0 -0.141888,-0.0381 -0.03909,-0.0386 -0.03909,-0.13996 v -0.29343 h -0.06515 v -0.069 h 0.06515 v -0.15348 z" />
              <path
                 inkscape:connector-curvature="0"
                 id="path1164"
                 style="stroke-width:0.02470982"
                 d="m 21.697413,278.00371 v 0.0434 h -0.408291 q 0.0058,0.0917 0.05502,0.13996 0.04971,0.0478 0.138028,0.0478 0.05116,0 0.09894,-0.0125 0.04826,-0.0125 0.09556,-0.0376 v 0.084 q -0.04778,0.0203 -0.09797,0.0309 -0.05019,0.0106 -0.101831,0.0106 -0.129341,0 -0.205111,-0.0753 -0.07529,-0.0753 -0.07529,-0.20366 0,-0.13272 0.07143,-0.21042 0.07191,-0.0782 0.193528,-0.0782 0.109071,0 0.172293,0.0705 0.06371,0.07 0.06371,0.19063 z m -0.0888,-0.0261 q -9.66e-4,-0.0729 -0.04102,-0.11631 -0.03957,-0.0434 -0.105209,-0.0434 -0.07432,0 -0.119206,0.042 -0.0444,0.042 -0.05116,0.11824 z" />
              <path
                 inkscape:connector-curvature="0"
                 id="path1166"
                 style="stroke-width:0.02470982"
                 d="m 22.275102,277.75565 -0.195458,0.26302 0.205593,0.2775 H 22.18051 l -0.157332,-0.21235 -0.157332,0.21235 h -0.104728 l 0.209937,-0.28281 -0.19208,-0.25771 h 0.104727 l 0.143337,0.19256 0.143336,-0.19256 z" />
              <path
                 inkscape:connector-curvature="0"
                 id="path1168"
                 style="stroke-width:0.02470982"
                 d="m 22.498552,277.60217 v 0.15348 h 0.182911 v 0.069 h -0.182911 v 0.29343 q 0,0.0661 0.01786,0.0849 0.01834,0.0188 0.07384,0.0188 h 0.09121 v 0.0743 h -0.09121 q -0.102797,0 -0.141889,-0.0381 -0.03909,-0.0386 -0.03909,-0.13996 v -0.29343 h -0.06515 v -0.069 h 0.06515 v -0.15348 z" />
              <path
                 inkscape:connector-curvature="0"
                 id="path1170"
                 style="stroke-width:0.02470982"
                 d="m 23.201238,277.60217 v 0.15348 h 0.182911 v 0.069 h -0.182911 v 0.29343 q 0,0.0661 0.01786,0.0849 0.01834,0.0188 0.07384,0.0188 h 0.09121 v 0.0743 h -0.09121 q -0.102797,0 -0.141889,-0.0381 -0.03909,-0.0386 -0.03909,-0.13996 v -0.29343 h -0.06515 v -0.069 h 0.06515 v -0.15348 z" />
              <path
                 inkscape:connector-curvature="0"
                 id="path1172"
                 style="stroke-width:0.02470982"
                 d="m 23.963768,278.00371 v 0.0434 h -0.408291 q 0.0058,0.0917 0.05502,0.13996 0.04971,0.0478 0.138027,0.0478 0.05116,0 0.09894,-0.0125 0.04826,-0.0125 0.09556,-0.0376 v 0.084 q -0.04778,0.0203 -0.09797,0.0309 -0.05019,0.0106 -0.101832,0.0106 -0.12934,0 -0.205111,-0.0753 -0.07529,-0.0753 -0.07529,-0.20366 0,-0.13272 0.07143,-0.21042 0.07191,-0.0782 0.193528,-0.0782 0.10907,0 0.172293,0.0705 0.06371,0.07 0.06371,0.19063 z m -0.0888,-0.0261 q -9.65e-4,-0.0729 -0.04102,-0.11631 -0.03957,-0.0434 -0.10521,-0.0434 -0.07432,0 -0.119206,0.042 -0.0444,0.042 -0.05116,0.11824 z" />
              <path
                 inkscape:connector-curvature="0"
                 id="path1174"
                 style="stroke-width:0.02470982"
                 d="m 24.541456,277.75565 -0.195458,0.26302 0.205593,0.2775 h -0.104727 l -0.157332,-0.21235 -0.157332,0.21235 h -0.104727 l 0.209937,-0.28281 -0.19208,-0.25771 h 0.104727 l 0.143336,0.19256 0.143336,-0.19256 z" />
              <path
                 inkscape:connector-curvature="0"
                 id="path1176"
                 style="stroke-width:0.02470982"
                 d="m 24.764906,277.60217 v 0.15348 h 0.182911 v 0.069 h -0.182911 v 0.29343 q 0,0.0661 0.01786,0.0849 0.01834,0.0188 0.07384,0.0188 h 0.09121 v 0.0743 h -0.09121 q -0.102797,0 -0.141889,-0.0381 -0.03909,-0.0386 -0.03909,-0.13996 v -0.29343 h -0.06515 v -0.069 h 0.06515 v -0.15348 z" />
            </g>
            <g
               id="text956"
               style="font-style:normal;font-weight:normal;font-size:0.98839295px;line-height:1.25;font-family:sans-serif;text-align:center;letter-spacing:0px;word-spacing:0px;text-anchor:middle;fill:#000000;fill-opacity:1;stroke:none;stroke-width:0.02470982"
               aria-label="Text text text">
              <path
                 inkscape:connector-curvature="0"
                 id="path1179"
                 style="stroke-width:0.02470982"
                 d="m 18.436392,279.47645 h 0.609542 v 0.082 h -0.255786 v 0.6385 h -0.09797 v -0.6385 h -0.255786 z" />
              <path
                 inkscape:connector-curvature="0"
                 id="path1181"
                 style="stroke-width:0.02470982"
                 d="m 19.431059,279.90453 v 0.0434 h -0.408291 q 0.0058,0.0917 0.05502,0.13996 0.04971,0.0478 0.138028,0.0478 0.05116,0 0.09893,-0.0125 0.04826,-0.0126 0.09556,-0.0376 v 0.084 q -0.04778,0.0203 -0.09797,0.0309 -0.05019,0.0106 -0.101831,0.0106 -0.129341,0 -0.205111,-0.0753 -0.07529,-0.0753 -0.07529,-0.20366 0,-0.13272 0.07143,-0.21042 0.07191,-0.0782 0.193528,-0.0782 0.109071,0 0.172293,0.0705 0.06371,0.07 0.06371,0.19064 z m -0.0888,-0.0261 q -9.65e-4,-0.0729 -0.04102,-0.11631 -0.03957,-0.0434 -0.10521,-0.0434 -0.07432,0 -0.119205,0.042 -0.0444,0.042 -0.05116,0.11824 z" />
              <path
                 inkscape:connector-curvature="0"
                 id="path1183"
                 style="stroke-width:0.02470982"
                 d="m 20.008748,279.65646 -0.195459,0.26303 0.205594,0.2775 h -0.104727 l -0.157332,-0.21235 -0.157332,0.21235 h -0.104728 l 0.209937,-0.28281 -0.19208,-0.25772 h 0.104727 l 0.143337,0.19257 0.143336,-0.19257 z" />
              <path
                 inkscape:connector-curvature="0"
                 id="path1185"
                 style="stroke-width:0.02470982"
                 d="m 20.232198,279.50299 v 0.15347 h 0.182911 v 0.069 h -0.182911 v 0.29343 q 0,0.0661 0.01786,0.0849 0.01834,0.0188 0.07384,0.0188 h 0.09121 v 0.0743 h -0.09121 q -0.102797,0 -0.141889,-0.0381 -0.03909,-0.0386 -0.03909,-0.13995 v -0.29343 h -0.06515 v -0.069 h 0.06515 v -0.15347 z" />
              <path
                 inkscape:connector-curvature="0"
                 id="path1187"
                 style="stroke-width:0.02470982"
                 d="m 20.934884,279.50299 v 0.15347 h 0.18291 v 0.069 h -0.18291 v 0.29343 q 0,0.0661 0.01786,0.0849 0.01834,0.0188 0.07384,0.0188 h 0.09121 v 0.0743 h -0.09121 q -0.102796,0 -0.141888,-0.0381 -0.03909,-0.0386 -0.03909,-0.13995 v -0.29343 h -0.06515 v -0.069 h 0.06515 v -0.15347 z" />
              <path
                 inkscape:connector-curvature="0"
                 id="path1189"
                 style="stroke-width:0.02470982"
                 d="m 21.697413,279.90453 v 0.0434 h -0.408291 q 0.0058,0.0917 0.05502,0.13996 0.04971,0.0478 0.138028,0.0478 0.05116,0 0.09894,-0.0125 0.04826,-0.0126 0.09556,-0.0376 v 0.084 q -0.04778,0.0203 -0.09797,0.0309 -0.05019,0.0106 -0.101831,0.0106 -0.129341,0 -0.205111,-0.0753 -0.07529,-0.0753 -0.07529,-0.20366 0,-0.13272 0.07143,-0.21042 0.07191,-0.0782 0.193528,-0.0782 0.109071,0 0.172293,0.0705 0.06371,0.07 0.06371,0.19064 z m -0.0888,-0.0261 q -9.66e-4,-0.0729 -0.04102,-0.11631 -0.03957,-0.0434 -0.105209,-0.0434 -0.07432,0 -0.119206,0.042 -0.0444,0.042 -0.05116,0.11824 z" />
              <path
                 inkscape:connector-curvature="0"
                 id="path1191"
                 style="stroke-width:0.02470982"
                 d="m 22.275102,279.65646 -0.195458,0.26303 0.205593,0.2775 H 22.18051 l -0.157332,-0.21235 -0.157332,0.21235 h -0.104728 l 0.209937,-0.28281 -0.19208,-0.25772 h 0.104727 l 0.143337,0.19257 0.143336,-0.19257 z" />
              <path
                 inkscape:connector-curvature="0"
                 id="path1193"
                 style="stroke-width:0.02470982"
                 d="m 22.498552,279.50299 v 0.15347 h 0.182911 v 0.069 h -0.182911 v 0.29343 q 0,0.0661 0.01786,0.0849 0.01834,0.0188 0.07384,0.0188 h 0.09121 v 0.0743 h -0.09121 q -0.102797,0 -0.141889,-0.0381 -0.03909,-0.0386 -0.03909,-0.13995 v -0.29343 h -0.06515 v -0.069 h 0.06515 v -0.15347 z" />
              <path
                 inkscape:connector-curvature="0"
                 id="path1195"
                 style="stroke-width:0.02470982"
                 d="m 23.201238,279.50299 v 0.15347 h 0.182911 v 0.069 h -0.182911 v 0.29343 q 0,0.0661 0.01786,0.0849 0.01834,0.0188 0.07384,0.0188 h 0.09121 v 0.0743 h -0.09121 q -0.102797,0 -0.141889,-0.0381 -0.03909,-0.0386 -0.03909,-0.13995 v -0.29343 h -0.06515 v -0.069 h 0.06515 v -0.15347 z" />
              <path
                 inkscape:connector-curvature="0"
                 id="path1197"
                 style="stroke-width:0.02470982"
                 d="m 23.963768,279.90453 v 0.0434 h -0.408291 q 0.0058,0.0917 0.05502,0.13996 0.04971,0.0478 0.138027,0.0478 0.05116,0 0.09894,-0.0125 0.04826,-0.0126 0.09556,-0.0376 v 0.084 q -0.04778,0.0203 -0.09797,0.0309 -0.05019,0.0106 -0.101832,0.0106 -0.12934,0 -0.205111,-0.0753 -0.07529,-0.0753 -0.07529,-0.20366 0,-0.13272 0.07143,-0.21042 0.07191,-0.0782 0.193528,-0.0782 0.10907,0 0.172293,0.0705 0.06371,0.07 0.06371,0.19064 z m -0.0888,-0.0261 q -9.65e-4,-0.0729 -0.04102,-0.11631 -0.03957,-0.0434 -0.10521,-0.0434 -0.07432,0 -0.119206,0.042 -0.0444,0.042 -0.05116,0.11824 z" />
              <path
                 inkscape:connector-curvature="0"
                 id="path1199"
                 style="stroke-width:0.02470982"
                 d="m 24.541456,279.65646 -0.195458,0.26303 0.205593,0.2775 h -0.104727 l -0.157332,-0.21235 -0.157332,0.21235 h -0.104727 l 0.209937,-0.28281 -0.19208,-0.25772 h 0.104727 l 0.143336,0.19257 0.143336,-0.19257 z" />
              <path
                 inkscape:connector-curvature="0"
                 id="path1201"
                 style="stroke-width:0.02470982"
                 d="m 24.764906,279.50299 v 0.15347 h 0.182911 v 0.069 h -0.182911 v 0.29343 q 0,0.0661 0.01786,0.0849 0.01834,0.0188 0.07384,0.0188 h 0.09121 v 0.0743 h -0.09121 q -0.102797,0 -0.141889,-0.0381 -0.03909,-0.0386 -0.03909,-0.13995 v -0.29343 h -0.06515 v -0.069 h 0.06515 v -0.15347 z" />
            </g>
            <g
               id="text960"
               style="font-style:normal;font-weight:normal;font-size:0.98839295px;line-height:1.25;font-family:sans-serif;text-align:center;letter-spacing:0px;word-spacing:0px;text-anchor:middle;fill:#000000;fill-opacity:1;stroke:none;stroke-width:0.02470982"
               aria-label="Text text text">
              <path
                 inkscape:connector-curvature="0"
                 id="path1204"
                 style="stroke-width:0.02470982"
                 d="m 18.436392,281.37727 h 0.609542 v 0.082 h -0.255786 v 0.6385 h -0.09797 v -0.6385 h -0.255786 z" />
              <path
                 inkscape:connector-curvature="0"
                 id="path1206"
                 style="stroke-width:0.02470982"
                 d="m 19.431059,281.80534 v 0.0434 h -0.408291 q 0.0058,0.0917 0.05502,0.13996 0.04971,0.0478 0.138028,0.0478 0.05116,0 0.09893,-0.0125 0.04826,-0.0126 0.09556,-0.0376 v 0.084 q -0.04778,0.0203 -0.09797,0.0309 -0.05019,0.0106 -0.101831,0.0106 -0.129341,0 -0.205111,-0.0753 -0.07529,-0.0753 -0.07529,-0.20367 0,-0.13271 0.07143,-0.21042 0.07191,-0.0782 0.193528,-0.0782 0.109071,0 0.172293,0.0705 0.06371,0.07 0.06371,0.19063 z m -0.0888,-0.0261 q -9.65e-4,-0.0729 -0.04102,-0.11631 -0.03957,-0.0434 -0.10521,-0.0434 -0.07432,0 -0.119205,0.042 -0.0444,0.042 -0.05116,0.11824 z" />
              <path
                 inkscape:connector-curvature="0"
                 id="path1208"
                 style="stroke-width:0.02470982"
                 d="m 20.008748,281.55728 -0.195459,0.26303 0.205594,0.2775 h -0.104727 l -0.157332,-0.21235 -0.157332,0.21235 h -0.104728 l 0.209937,-0.28281 -0.19208,-0.25772 h 0.104727 l 0.143337,0.19256 0.143336,-0.19256 z" />
              <path
                 inkscape:connector-curvature="0"
                 id="path1210"
                 style="stroke-width:0.02470982"
                 d="m 20.232198,281.40381 v 0.15347 h 0.182911 v 0.069 h -0.182911 v 0.29342 q 0,0.0661 0.01786,0.0849 0.01834,0.0188 0.07384,0.0188 h 0.09121 v 0.0743 h -0.09121 q -0.102797,0 -0.141889,-0.0381 -0.03909,-0.0386 -0.03909,-0.13996 v -0.29342 h -0.06515 v -0.069 h 0.06515 v -0.15347 z" />
              <path
                 inkscape:connector-curvature="0"
                 id="path1212"
                 style="stroke-width:0.02470982"
                 d="m 20.934884,281.40381 v 0.15347 h 0.18291 v 0.069 h -0.18291 v 0.29342 q 0,0.0661 0.01786,0.0849 0.01834,0.0188 0.07384,0.0188 h 0.09121 v 0.0743 h -0.09121 q -0.102796,0 -0.141888,-0.0381 -0.03909,-0.0386 -0.03909,-0.13996 v -0.29342 h -0.06515 v -0.069 h 0.06515 v -0.15347 z" />
              <path
                 inkscape:connector-curvature="0"
                 id="path1214"
                 style="stroke-width:0.02470982"
                 d="m 21.697413,281.80534 v 0.0434 h -0.408291 q 0.0058,0.0917 0.05502,0.13996 0.04971,0.0478 0.138028,0.0478 0.05116,0 0.09894,-0.0125 0.04826,-0.0126 0.09556,-0.0376 v 0.084 q -0.04778,0.0203 -0.09797,0.0309 -0.05019,0.0106 -0.101831,0.0106 -0.129341,0 -0.205111,-0.0753 -0.07529,-0.0753 -0.07529,-0.20367 0,-0.13271 0.07143,-0.21042 0.07191,-0.0782 0.193528,-0.0782 0.109071,0 0.172293,0.0705 0.06371,0.07 0.06371,0.19063 z m -0.0888,-0.0261 q -9.66e-4,-0.0729 -0.04102,-0.11631 -0.03957,-0.0434 -0.105209,-0.0434 -0.07432,0 -0.119206,0.042 -0.0444,0.042 -0.05116,0.11824 z" />
              <path
                 inkscape:connector-curvature="0"
                 id="path1216"
                 style="stroke-width:0.02470982"
                 d="m 22.275102,281.55728 -0.195458,0.26303 0.205593,0.2775 H 22.18051 l -0.157332,-0.21235 -0.157332,0.21235 h -0.104728 l 0.209937,-0.28281 -0.19208,-0.25772 h 0.104727 l 0.143337,0.19256 0.143336,-0.19256 z" />
              <path
                 inkscape:connector-curvature="0"
                 id="path1218"
                 style="stroke-width:0.02470982"
                 d="m 22.498552,281.40381 v 0.15347 h 0.182911 v 0.069 h -0.182911 v 0.29342 q 0,0.0661 0.01786,0.0849 0.01834,0.0188 0.07384,0.0188 h 0.09121 v 0.0743 h -0.09121 q -0.102797,0 -0.141889,-0.0381 -0.03909,-0.0386 -0.03909,-0.13996 v -0.29342 h -0.06515 v -0.069 h 0.06515 v -0.15347 z" />
              <path
                 inkscape:connector-curvature="0"
                 id="path1220"
                 style="stroke-width:0.02470982"
                 d="m 23.201238,281.40381 v 0.15347 h 0.182911 v 0.069 h -0.182911 v 0.29342 q 0,0.0661 0.01786,0.0849 0.01834,0.0188 0.07384,0.0188 h 0.09121 v 0.0743 h -0.09121 q -0.102797,0 -0.141889,-0.0381 -0.03909,-0.0386 -0.03909,-0.13996 v -0.29342 h -0.06515 v -0.069 h 0.06515 v -0.15347 z" />
              <path
                 inkscape:connector-curvature="0"
                 id="path1222"
                 style="stroke-width:0.02470982"
                 d="m 23.963768,281.80534 v 0.0434 h -0.408291 q 0.0058,0.0917 0.05502,0.13996 0.04971,0.0478 0.138027,0.0478 0.05116,0 0.09894,-0.0125 0.04826,-0.0126 0.09556,-0.0376 v 0.084 q -0.04778,0.0203 -0.09797,0.0309 -0.05019,0.0106 -0.101832,0.0106 -0.12934,0 -0.205111,-0.0753 -0.07529,-0.0753 -0.07529,-0.20367 0,-0.13271 0.07143,-0.21042 0.07191,-0.0782 0.193528,-0.0782 0.10907,0 0.172293,0.0705 0.06371,0.07 0.06371,0.19063 z m -0.0888,-0.0261 q -9.65e-4,-0.0729 -0.04102,-0.11631 -0.03957,-0.0434 -0.10521,-0.0434 -0.07432,0 -0.119206,0.042 -0.0444,0.042 -0.05116,0.11824 z" />
              <path
                 inkscape:connector-curvature="0"
                 id="path1224"
                 style="stroke-width:0.02470982"
                 d="m 24.541456,281.55728 -0.195458,0.26303 0.205593,0.2775 h -0.104727 l -0.157332,-0.21235 -0.157332,0.21235 h -0.104727 l 0.209937,-0.28281 -0.19208,-0.25772 h 0.104727 l 0.143336,0.19256 0.143336,-0.19256 z" />
              <path
                 inkscape:connector-curvature="0"
                 id="path1226"
                 style="stroke-width:0.02470982"
                 d="m 24.764906,281.40381 v 0.15347 h 0.182911 v 0.069 h -0.182911 v 0.29342 q 0,0.0661 0.01786,0.0849 0.01834,0.0188 0.07384,0.0188 h 0.09121 v 0.0743 h -0.09121 q -0.102797,0 -0.141889,-0.0381 -0.03909,-0.0386 -0.03909,-0.13996 v -0.29342 h -0.06515 v -0.069 h 0.06515 v -0.15347 z" />
            </g>
            <g
               id="text964"
               style="font-style:normal;font-weight:normal;font-size:0.98839295px;line-height:1.25;font-family:sans-serif;text-align:center;letter-spacing:0px;word-spacing:0px;text-anchor:middle;fill:#000000;fill-opacity:1;stroke:none;stroke-width:0.02470982"
               aria-label="Text text text">
              <path
                 inkscape:connector-curvature="0"
                 id="path1229"
                 style="stroke-width:0.02470982"
                 d="m 18.436392,283.27808 h 0.609542 v 0.0821 h -0.255786 v 0.6385 h -0.09797 v -0.6385 h -0.255786 z" />
              <path
                 inkscape:connector-curvature="0"
                 id="path1231"
                 style="stroke-width:0.02470982"
                 d="m 19.431059,283.70616 v 0.0434 h -0.408291 q 0.0058,0.0917 0.05502,0.13996 0.04971,0.0478 0.138028,0.0478 0.05116,0 0.09893,-0.0125 0.04826,-0.0125 0.09556,-0.0376 v 0.084 q -0.04778,0.0203 -0.09797,0.0309 -0.05019,0.0106 -0.101831,0.0106 -0.129341,0 -0.205111,-0.0753 -0.07529,-0.0753 -0.07529,-0.20366 0,-0.13272 0.07143,-0.21042 0.07191,-0.0782 0.193528,-0.0782 0.109071,0 0.172293,0.0705 0.06371,0.07 0.06371,0.19063 z m -0.0888,-0.0261 q -9.65e-4,-0.0729 -0.04102,-0.11631 -0.03957,-0.0434 -0.10521,-0.0434 -0.07432,0 -0.119205,0.042 -0.0444,0.042 -0.05116,0.11824 z" />
              <path
                 inkscape:connector-curvature="0"
                 id="path1233"
                 style="stroke-width:0.02470982"
                 d="m 20.008748,283.4581 -0.195459,0.26302 0.205594,0.27751 h -0.104727 l -0.157332,-0.21235 -0.157332,0.21235 h -0.104728 l 0.209937,-0.28281 -0.19208,-0.25772 h 0.104727 l 0.143337,0.19256 0.143336,-0.19256 z" />
              <path
                 inkscape:connector-curvature="0"
                 id="path1235"
                 style="stroke-width:0.02470982"
                 d="m 20.232198,283.30463 v 0.15347 h 0.182911 v 0.069 h -0.182911 v 0.29343 q 0,0.0661 0.01786,0.0849 0.01834,0.0188 0.07384,0.0188 h 0.09121 v 0.0743 h -0.09121 q -0.102797,0 -0.141889,-0.0381 -0.03909,-0.0386 -0.03909,-0.13996 v -0.29343 h -0.06515 v -0.069 h 0.06515 v -0.15347 z" />
              <path
                 inkscape:connector-curvature="0"
                 id="path1237"
                 style="stroke-width:0.02470982"
                 d="m 20.934884,283.30463 v 0.15347 h 0.18291 v 0.069 h -0.18291 v 0.29343 q 0,0.0661 0.01786,0.0849 0.01834,0.0188 0.07384,0.0188 h 0.09121 v 0.0743 h -0.09121 q -0.102796,0 -0.141888,-0.0381 -0.03909,-0.0386 -0.03909,-0.13996 v -0.29343 h -0.06515 v -0.069 h 0.06515 v -0.15347 z" />
              <path
                 inkscape:connector-curvature="0"
                 id="path1239"
                 style="stroke-width:0.02470982"
                 d="m 21.697413,283.70616 v 0.0434 h -0.408291 q 0.0058,0.0917 0.05502,0.13996 0.04971,0.0478 0.138028,0.0478 0.05116,0 0.09894,-0.0125 0.04826,-0.0125 0.09556,-0.0376 v 0.084 q -0.04778,0.0203 -0.09797,0.0309 -0.05019,0.0106 -0.101831,0.0106 -0.129341,0 -0.205111,-0.0753 -0.07529,-0.0753 -0.07529,-0.20366 0,-0.13272 0.07143,-0.21042 0.07191,-0.0782 0.193528,-0.0782 0.109071,0 0.172293,0.0705 0.06371,0.07 0.06371,0.19063 z m -0.0888,-0.0261 q -9.66e-4,-0.0729 -0.04102,-0.11631 -0.03957,-0.0434 -0.105209,-0.0434 -0.07432,0 -0.119206,0.042 -0.0444,0.042 -0.05116,0.11824 z" />
              <path
                 inkscape:connector-curvature="0"
                 id="path1241"
                 style="stroke-width:0.02470982"
                 d="m 22.275102,283.4581 -0.195458,0.26302 0.205593,0.27751 H 22.18051 l -0.157332,-0.21235 -0.157332,0.21235 h -0.104728 l 0.209937,-0.28281 -0.19208,-0.25772 h 0.104727 l 0.143337,0.19256 0.143336,-0.19256 z" />
              <path
                 inkscape:connector-curvature="0"
                 id="path1243"
                 style="stroke-width:0.02470982"
                 d="m 22.498552,283.30463 v 0.15347 h 0.182911 v 0.069 h -0.182911 v 0.29343 q 0,0.0661 0.01786,0.0849 0.01834,0.0188 0.07384,0.0188 h 0.09121 v 0.0743 h -0.09121 q -0.102797,0 -0.141889,-0.0381 -0.03909,-0.0386 -0.03909,-0.13996 v -0.29343 h -0.06515 v -0.069 h 0.06515 v -0.15347 z" />
              <path
                 inkscape:connector-curvature="0"
                 id="path1245"
                 style="stroke-width:0.02470982"
                 d="m 23.201238,283.30463 v 0.15347 h 0.182911 v 0.069 h -0.182911 v 0.29343 q 0,0.0661 0.01786,0.0849 0.01834,0.0188 0.07384,0.0188 h 0.09121 v 0.0743 h -0.09121 q -0.102797,0 -0.141889,-0.0381 -0.03909,-0.0386 -0.03909,-0.13996 v -0.29343 h -0.06515 v -0.069 h 0.06515 v -0.15347 z" />
              <path
                 inkscape:connector-curvature="0"
                 id="path1247"
                 style="stroke-width:0.02470982"
                 d="m 23.963768,283.70616 v 0.0434 h -0.408291 q 0.0058,0.0917 0.05502,0.13996 0.04971,0.0478 0.138027,0.0478 0.05116,0 0.09894,-0.0125 0.04826,-0.0125 0.09556,-0.0376 v 0.084 q -0.04778,0.0203 -0.09797,0.0309 -0.05019,0.0106 -0.101832,0.0106 -0.12934,0 -0.205111,-0.0753 -0.07529,-0.0753 -0.07529,-0.20366 0,-0.13272 0.07143,-0.21042 0.07191,-0.0782 0.193528,-0.0782 0.10907,0 0.172293,0.0705 0.06371,0.07 0.06371,0.19063 z m -0.0888,-0.0261 q -9.65e-4,-0.0729 -0.04102,-0.11631 -0.03957,-0.0434 -0.10521,-0.0434 -0.07432,0 -0.119206,0.042 -0.0444,0.042 -0.05116,0.11824 z" />
              <path
                 inkscape:connector-curvature="0"
                 id="path1249"
                 style="stroke-width:0.02470982"
                 d="m 24.541456,283.4581 -0.195458,0.26302 0.205593,0.27751 h -0.104727 l -0.157332,-0.21235 -0.157332,0.21235 h -0.104727 l 0.209937,-0.28281 -0.19208,-0.25772 h 0.104727 l 0.143336,0.19256 0.143336,-0.19256 z" />
              <path
                 inkscape:connector-curvature="0"
                 id="path1251"
                 style="stroke-width:0.02470982"
                 d="m 24.764906,283.30463 v 0.15347 h 0.182911 v 0.069 h -0.182911 v 0.29343 q 0,0.0661 0.01786,0.0849 0.01834,0.0188 0.07384,0.0188 h 0.09121 v 0.0743 h -0.09121 q -0.102797,0 -0.141889,-0.0381 -0.03909,-0.0386 -0.03909,-0.13996 v -0.29343 h -0.06515 v -0.069 h 0.06515 v -0.15347 z" />
            </g>
            <g
               id="text968"
               style="font-style:normal;font-weight:normal;font-size:0.98839295px;line-height:1.25;font-family:sans-serif;text-align:center;letter-spacing:0px;word-spacing:0px;text-anchor:middle;fill:#000000;fill-opacity:1;stroke:none;stroke-width:0.02470982"
               aria-label="Text text text">
              <path
                 inkscape:connector-curvature="0"
                 id="path1254"
                 style="stroke-width:0.02470982"
                 d="m 18.436392,285.1789 h 0.609542 v 0.082 h -0.255786 v 0.63849 h -0.09797 v -0.63849 h -0.255786 z" />
              <path
                 inkscape:connector-curvature="0"
                 id="path1256"
                 style="stroke-width:0.02470982"
                 d="m 19.431059,285.60698 v 0.0434 h -0.408291 q 0.0058,0.0917 0.05502,0.13995 0.04971,0.0478 0.138028,0.0478 0.05116,0 0.09893,-0.0125 0.04826,-0.0125 0.09556,-0.0376 v 0.084 q -0.04778,0.0203 -0.09797,0.0309 -0.05019,0.0106 -0.101831,0.0106 -0.129341,0 -0.205111,-0.0753 -0.07529,-0.0753 -0.07529,-0.20366 0,-0.13272 0.07143,-0.21042 0.07191,-0.0782 0.193528,-0.0782 0.109071,0 0.172293,0.0705 0.06371,0.07 0.06371,0.19063 z m -0.0888,-0.0261 q -9.65e-4,-0.0729 -0.04102,-0.11631 -0.03957,-0.0434 -0.10521,-0.0434 -0.07432,0 -0.119205,0.042 -0.0444,0.042 -0.05116,0.11824 z" />
              <path
                 inkscape:connector-curvature="0"
                 id="path1258"
                 style="stroke-width:0.02470982"
                 d="m 20.008748,285.35892 -0.195459,0.26302 0.205594,0.2775 h -0.104727 l -0.157332,-0.21235 -0.157332,0.21235 h -0.104728 l 0.209937,-0.28281 -0.19208,-0.25771 h 0.104727 l 0.143337,0.19256 0.143336,-0.19256 z" />
              <path
                 inkscape:connector-curvature="0"
                 id="path1260"
                 style="stroke-width:0.02470982"
                 d="m 20.232198,285.20545 v 0.15347 h 0.182911 v 0.069 h -0.182911 v 0.29343 q 0,0.0661 0.01786,0.0849 0.01834,0.0188 0.07384,0.0188 h 0.09121 v 0.0743 h -0.09121 q -0.102797,0 -0.141889,-0.0381 -0.03909,-0.0386 -0.03909,-0.13996 v -0.29343 h -0.06515 v -0.069 h 0.06515 v -0.15347 z" />
              <path
                 inkscape:connector-curvature="0"
                 id="path1262"
                 style="stroke-width:0.02470982"
                 d="m 20.934884,285.20545 v 0.15347 h 0.18291 v 0.069 h -0.18291 v 0.29343 q 0,0.0661 0.01786,0.0849 0.01834,0.0188 0.07384,0.0188 h 0.09121 v 0.0743 h -0.09121 q -0.102796,0 -0.141888,-0.0381 -0.03909,-0.0386 -0.03909,-0.13996 v -0.29343 h -0.06515 v -0.069 h 0.06515 v -0.15347 z" />
              <path
                 inkscape:connector-curvature="0"
                 id="path1264"
                 style="stroke-width:0.02470982"
                 d="m 21.697413,285.60698 v 0.0434 h -0.408291 q 0.0058,0.0917 0.05502,0.13995 0.04971,0.0478 0.138028,0.0478 0.05116,0 0.09894,-0.0125 0.04826,-0.0125 0.09556,-0.0376 v 0.084 q -0.04778,0.0203 -0.09797,0.0309 -0.05019,0.0106 -0.101831,0.0106 -0.129341,0 -0.205111,-0.0753 -0.07529,-0.0753 -0.07529,-0.20366 0,-0.13272 0.07143,-0.21042 0.07191,-0.0782 0.193528,-0.0782 0.109071,0 0.172293,0.0705 0.06371,0.07 0.06371,0.19063 z m -0.0888,-0.0261 q -9.66e-4,-0.0729 -0.04102,-0.11631 -0.03957,-0.0434 -0.105209,-0.0434 -0.07432,0 -0.119206,0.042 -0.0444,0.042 -0.05116,0.11824 z" />
              <path
                 inkscape:connector-curvature="0"
                 id="path1266"
                 style="stroke-width:0.02470982"
                 d="m 22.275102,285.35892 -0.195458,0.26302 0.205593,0.2775 H 22.18051 l -0.157332,-0.21235 -0.157332,0.21235 h -0.104728 l 0.209937,-0.28281 -0.19208,-0.25771 h 0.104727 l 0.143337,0.19256 0.143336,-0.19256 z" />
              <path
                 inkscape:connector-curvature="0"
                 id="path1268"
                 style="stroke-width:0.02470982"
                 d="m 22.498552,285.20545 v 0.15347 h 0.182911 v 0.069 h -0.182911 v 0.29343 q 0,0.0661 0.01786,0.0849 0.01834,0.0188 0.07384,0.0188 h 0.09121 v 0.0743 h -0.09121 q -0.102797,0 -0.141889,-0.0381 -0.03909,-0.0386 -0.03909,-0.13996 v -0.29343 h -0.06515 v -0.069 h 0.06515 v -0.15347 z" />
              <path
                 inkscape:connector-curvature="0"
                 id="path1270"
                 style="stroke-width:0.02470982"
                 d="m 23.201238,285.20545 v 0.15347 h 0.182911 v 0.069 h -0.182911 v 0.29343 q 0,0.0661 0.01786,0.0849 0.01834,0.0188 0.07384,0.0188 h 0.09121 v 0.0743 h -0.09121 q -0.102797,0 -0.141889,-0.0381 -0.03909,-0.0386 -0.03909,-0.13996 v -0.29343 h -0.06515 v -0.069 h 0.06515 v -0.15347 z" />
              <path
                 inkscape:connector-curvature="0"
                 id="path1272"
                 style="stroke-width:0.02470982"
                 d="m 23.963768,285.60698 v 0.0434 h -0.408291 q 0.0058,0.0917 0.05502,0.13995 0.04971,0.0478 0.138027,0.0478 0.05116,0 0.09894,-0.0125 0.04826,-0.0125 0.09556,-0.0376 v 0.084 q -0.04778,0.0203 -0.09797,0.0309 -0.05019,0.0106 -0.101832,0.0106 -0.12934,0 -0.205111,-0.0753 -0.07529,-0.0753 -0.07529,-0.20366 0,-0.13272 0.07143,-0.21042 0.07191,-0.0782 0.193528,-0.0782 0.10907,0 0.172293,0.0705 0.06371,0.07 0.06371,0.19063 z m -0.0888,-0.0261 q -9.65e-4,-0.0729 -0.04102,-0.11631 -0.03957,-0.0434 -0.10521,-0.0434 -0.07432,0 -0.119206,0.042 -0.0444,0.042 -0.05116,0.11824 z" />
              <path
                 inkscape:connector-curvature="0"
                 id="path1274"
                 style="stroke-width:0.02470982"
                 d="m 24.541456,285.35892 -0.195458,0.26302 0.205593,0.2775 h -0.104727 l -0.157332,-0.21235 -0.157332,0.21235 h -0.104727 l 0.209937,-0.28281 -0.19208,-0.25771 h 0.104727 l 0.143336,0.19256 0.143336,-0.19256 z" />
              <path
                 inkscape:connector-curvature="0"
                 id="path1276"
                 style="stroke-width:0.02470982"
                 d="m 24.764906,285.20545 v 0.15347 h 0.182911 v 0.069 h -0.182911 v 0.29343 q 0,0.0661 0.01786,0.0849 0.01834,0.0188 0.07384,0.0188 h 0.09121 v 0.0743 h -0.09121 q -0.102797,0 -0.141889,-0.0381 -0.03909,-0.0386 -0.03909,-0.13996 v -0.29343 h -0.06515 v -0.069 h 0.06515 v -0.15347 z" />
            </g>
          </g>
          <g
             id="g992"
             transform="translate(13.885932,0.33374641)">
            <g
               id="text974"
               style="font-style:normal;font-weight:normal;font-size:0.98839295px;line-height:1.25;font-family:sans-serif;text-align:center;letter-spacing:0px;word-spacing:0px;text-anchor:middle;fill:#000000;fill-opacity:1;stroke:none;stroke-width:0.02470982"
               aria-label="Text text text">
              <path
                 inkscape:connector-curvature="0"
                 id="path1279"
                 style="stroke-width:0.02470982"
                 d="m 18.436392,277.57563 h 0.609542 v 0.0821 h -0.255786 v 0.63849 h -0.09797 v -0.63849 h -0.255786 z" />
              <path
                 inkscape:connector-curvature="0"
                 id="path1281"
                 style="stroke-width:0.02470982"
                 d="m 19.431059,278.00371 v 0.0434 h -0.408291 q 0.0058,0.0917 0.05502,0.13996 0.04971,0.0478 0.138028,0.0478 0.05116,0 0.09893,-0.0125 0.04826,-0.0125 0.09556,-0.0376 v 0.084 q -0.04778,0.0203 -0.09797,0.0309 -0.05019,0.0106 -0.101831,0.0106 -0.129341,0 -0.205111,-0.0753 -0.07529,-0.0753 -0.07529,-0.20366 0,-0.13272 0.07143,-0.21042 0.07191,-0.0782 0.193528,-0.0782 0.109071,0 0.172293,0.0705 0.06371,0.07 0.06371,0.19063 z m -0.0888,-0.0261 q -9.65e-4,-0.0729 -0.04102,-0.11631 -0.03957,-0.0434 -0.10521,-0.0434 -0.07432,0 -0.119205,0.042 -0.0444,0.042 -0.05116,0.11824 z" />
              <path
                 inkscape:connector-curvature="0"
                 id="path1283"
                 style="stroke-width:0.02470982"
                 d="m 20.008748,277.75565 -0.195459,0.26302 0.205594,0.2775 h -0.104727 l -0.157332,-0.21235 -0.157332,0.21235 h -0.104728 l 0.209937,-0.28281 -0.19208,-0.25771 h 0.104727 l 0.143337,0.19256 0.143336,-0.19256 z" />
              <path
                 inkscape:connector-curvature="0"
                 id="path1285"
                 style="stroke-width:0.02470982"
                 d="m 20.232198,277.60217 v 0.15348 h 0.182911 v 0.069 h -0.182911 v 0.29343 q 0,0.0661 0.01786,0.0849 0.01834,0.0188 0.07384,0.0188 h 0.09121 v 0.0743 h -0.09121 q -0.102797,0 -0.141889,-0.0381 -0.03909,-0.0386 -0.03909,-0.13996 v -0.29343 h -0.06515 v -0.069 h 0.06515 v -0.15348 z" />
              <path
                 inkscape:connector-curvature="0"
                 id="path1287"
                 style="stroke-width:0.02470982"
                 d="m 20.934884,277.60217 v 0.15348 h 0.18291 v 0.069 h -0.18291 v 0.29343 q 0,0.0661 0.01786,0.0849 0.01834,0.0188 0.07384,0.0188 h 0.09121 v 0.0743 h -0.09121 q -0.102796,0 -0.141888,-0.0381 -0.03909,-0.0386 -0.03909,-0.13996 v -0.29343 h -0.06515 v -0.069 h 0.06515 v -0.15348 z" />
              <path
                 inkscape:connector-curvature="0"
                 id="path1289"
                 style="stroke-width:0.02470982"
                 d="m 21.697413,278.00371 v 0.0434 h -0.408291 q 0.0058,0.0917 0.05502,0.13996 0.04971,0.0478 0.138028,0.0478 0.05116,0 0.09894,-0.0125 0.04826,-0.0125 0.09556,-0.0376 v 0.084 q -0.04778,0.0203 -0.09797,0.0309 -0.05019,0.0106 -0.101831,0.0106 -0.129341,0 -0.205111,-0.0753 -0.07529,-0.0753 -0.07529,-0.20366 0,-0.13272 0.07143,-0.21042 0.07191,-0.0782 0.193528,-0.0782 0.109071,0 0.172293,0.0705 0.06371,0.07 0.06371,0.19063 z m -0.0888,-0.0261 q -9.66e-4,-0.0729 -0.04102,-0.11631 -0.03957,-0.0434 -0.105209,-0.0434 -0.07432,0 -0.119206,0.042 -0.0444,0.042 -0.05116,0.11824 z" />
              <path
                 inkscape:connector-curvature="0"
                 id="path1291"
                 style="stroke-width:0.02470982"
                 d="m 22.275102,277.75565 -0.195458,0.26302 0.205593,0.2775 H 22.18051 l -0.157332,-0.21235 -0.157332,0.21235 h -0.104728 l 0.209937,-0.28281 -0.19208,-0.25771 h 0.104727 l 0.143337,0.19256 0.143336,-0.19256 z" />
              <path
                 inkscape:connector-curvature="0"
                 id="path1293"
                 style="stroke-width:0.02470982"
                 d="m 22.498552,277.60217 v 0.15348 h 0.182911 v 0.069 h -0.182911 v 0.29343 q 0,0.0661 0.01786,0.0849 0.01834,0.0188 0.07384,0.0188 h 0.09121 v 0.0743 h -0.09121 q -0.102797,0 -0.141889,-0.0381 -0.03909,-0.0386 -0.03909,-0.13996 v -0.29343 h -0.06515 v -0.069 h 0.06515 v -0.15348 z" />
              <path
                 inkscape:connector-curvature="0"
                 id="path1295"
                 style="stroke-width:0.02470982"
                 d="m 23.201238,277.60217 v 0.15348 h 0.182911 v 0.069 h -0.182911 v 0.29343 q 0,0.0661 0.01786,0.0849 0.01834,0.0188 0.07384,0.0188 h 0.09121 v 0.0743 h -0.09121 q -0.102797,0 -0.141889,-0.0381 -0.03909,-0.0386 -0.03909,-0.13996 v -0.29343 h -0.06515 v -0.069 h 0.06515 v -0.15348 z" />
              <path
                 inkscape:connector-curvature="0"
                 id="path1297"
                 style="stroke-width:0.02470982"
                 d="m 23.963768,278.00371 v 0.0434 h -0.408291 q 0.0058,0.0917 0.05502,0.13996 0.04971,0.0478 0.138027,0.0478 0.05116,0 0.09894,-0.0125 0.04826,-0.0125 0.09556,-0.0376 v 0.084 q -0.04778,0.0203 -0.09797,0.0309 -0.05019,0.0106 -0.101832,0.0106 -0.12934,0 -0.205111,-0.0753 -0.07529,-0.0753 -0.07529,-0.20366 0,-0.13272 0.07143,-0.21042 0.07191,-0.0782 0.193528,-0.0782 0.10907,0 0.172293,0.0705 0.06371,0.07 0.06371,0.19063 z m -0.0888,-0.0261 q -9.65e-4,-0.0729 -0.04102,-0.11631 -0.03957,-0.0434 -0.10521,-0.0434 -0.07432,0 -0.119206,0.042 -0.0444,0.042 -0.05116,0.11824 z" />
              <path
                 inkscape:connector-curvature="0"
                 id="path1299"
                 style="stroke-width:0.02470982"
                 d="m 24.541456,277.75565 -0.195458,0.26302 0.205593,0.2775 h -0.104727 l -0.157332,-0.21235 -0.157332,0.21235 h -0.104727 l 0.209937,-0.28281 -0.19208,-0.25771 h 0.104727 l 0.143336,0.19256 0.143336,-0.19256 z" />
              <path
                 inkscape:connector-curvature="0"
                 id="path1301"
                 style="stroke-width:0.02470982"
                 d="m 24.764906,277.60217 v 0.15348 h 0.182911 v 0.069 h -0.182911 v 0.29343 q 0,0.0661 0.01786,0.0849 0.01834,0.0188 0.07384,0.0188 h 0.09121 v 0.0743 h -0.09121 q -0.102797,0 -0.141889,-0.0381 -0.03909,-0.0386 -0.03909,-0.13996 v -0.29343 h -0.06515 v -0.069 h 0.06515 v -0.15348 z" />
            </g>
            <g
               id="text978"
               style="font-style:normal;font-weight:normal;font-size:0.98839295px;line-height:1.25;font-family:sans-serif;text-align:center;letter-spacing:0px;word-spacing:0px;text-anchor:middle;fill:#000000;fill-opacity:1;stroke:none;stroke-width:0.02470982"
               aria-label="Text text text">
              <path
                 inkscape:connector-curvature="0"
                 id="path1304"
                 style="stroke-width:0.02470982"
                 d="m 18.436392,279.47645 h 0.609542 v 0.082 h -0.255786 v 0.6385 h -0.09797 v -0.6385 h -0.255786 z" />
              <path
                 inkscape:connector-curvature="0"
                 id="path1306"
                 style="stroke-width:0.02470982"
                 d="m 19.431059,279.90453 v 0.0434 h -0.408291 q 0.0058,0.0917 0.05502,0.13996 0.04971,0.0478 0.138028,0.0478 0.05116,0 0.09893,-0.0125 0.04826,-0.0126 0.09556,-0.0376 v 0.084 q -0.04778,0.0203 -0.09797,0.0309 -0.05019,0.0106 -0.101831,0.0106 -0.129341,0 -0.205111,-0.0753 -0.07529,-0.0753 -0.07529,-0.20366 0,-0.13272 0.07143,-0.21042 0.07191,-0.0782 0.193528,-0.0782 0.109071,0 0.172293,0.0705 0.06371,0.07 0.06371,0.19064 z m -0.0888,-0.0261 q -9.65e-4,-0.0729 -0.04102,-0.11631 -0.03957,-0.0434 -0.10521,-0.0434 -0.07432,0 -0.119205,0.042 -0.0444,0.042 -0.05116,0.11824 z" />
              <path
                 inkscape:connector-curvature="0"
                 id="path1308"
                 style="stroke-width:0.02470982"
                 d="m 20.008748,279.65646 -0.195459,0.26303 0.205594,0.2775 h -0.104727 l -0.157332,-0.21235 -0.157332,0.21235 h -0.104728 l 0.209937,-0.28281 -0.19208,-0.25772 h 0.104727 l 0.143337,0.19257 0.143336,-0.19257 z" />
              <path
                 inkscape:connector-curvature="0"
                 id="path1310"
                 style="stroke-width:0.02470982"
                 d="m 20.232198,279.50299 v 0.15347 h 0.182911 v 0.069 h -0.182911 v 0.29343 q 0,0.0661 0.01786,0.0849 0.01834,0.0188 0.07384,0.0188 h 0.09121 v 0.0743 h -0.09121 q -0.102797,0 -0.141889,-0.0381 -0.03909,-0.0386 -0.03909,-0.13995 v -0.29343 h -0.06515 v -0.069 h 0.06515 v -0.15347 z" />
              <path
                 inkscape:connector-curvature="0"
                 id="path1312"
                 style="stroke-width:0.02470982"
                 d="m 20.934884,279.50299 v 0.15347 h 0.18291 v 0.069 h -0.18291 v 0.29343 q 0,0.0661 0.01786,0.0849 0.01834,0.0188 0.07384,0.0188 h 0.09121 v 0.0743 h -0.09121 q -0.102796,0 -0.141888,-0.0381 -0.03909,-0.0386 -0.03909,-0.13995 v -0.29343 h -0.06515 v -0.069 h 0.06515 v -0.15347 z" />
              <path
                 inkscape:connector-curvature="0"
                 id="path1314"
                 style="stroke-width:0.02470982"
                 d="m 21.697413,279.90453 v 0.0434 h -0.408291 q 0.0058,0.0917 0.05502,0.13996 0.04971,0.0478 0.138028,0.0478 0.05116,0 0.09894,-0.0125 0.04826,-0.0126 0.09556,-0.0376 v 0.084 q -0.04778,0.0203 -0.09797,0.0309 -0.05019,0.0106 -0.101831,0.0106 -0.129341,0 -0.205111,-0.0753 -0.07529,-0.0753 -0.07529,-0.20366 0,-0.13272 0.07143,-0.21042 0.07191,-0.0782 0.193528,-0.0782 0.109071,0 0.172293,0.0705 0.06371,0.07 0.06371,0.19064 z m -0.0888,-0.0261 q -9.66e-4,-0.0729 -0.04102,-0.11631 -0.03957,-0.0434 -0.105209,-0.0434 -0.07432,0 -0.119206,0.042 -0.0444,0.042 -0.05116,0.11824 z" />
              <path
                 inkscape:connector-curvature="0"
                 id="path1316"
                 style="stroke-width:0.02470982"
                 d="m 22.275102,279.65646 -0.195458,0.26303 0.205593,0.2775 H 22.18051 l -0.157332,-0.21235 -0.157332,0.21235 h -0.104728 l 0.209937,-0.28281 -0.19208,-0.25772 h 0.104727 l 0.143337,0.19257 0.143336,-0.19257 z" />
              <path
                 inkscape:connector-curvature="0"
                 id="path1318"
                 style="stroke-width:0.02470982"
                 d="m 22.498552,279.50299 v 0.15347 h 0.182911 v 0.069 h -0.182911 v 0.29343 q 0,0.0661 0.01786,0.0849 0.01834,0.0188 0.07384,0.0188 h 0.09121 v 0.0743 h -0.09121 q -0.102797,0 -0.141889,-0.0381 -0.03909,-0.0386 -0.03909,-0.13995 v -0.29343 h -0.06515 v -0.069 h 0.06515 v -0.15347 z" />
              <path
                 inkscape:connector-curvature="0"
                 id="path1320"
                 style="stroke-width:0.02470982"
                 d="m 23.201238,279.50299 v 0.15347 h 0.182911 v 0.069 h -0.182911 v 0.29343 q 0,0.0661 0.01786,0.0849 0.01834,0.0188 0.07384,0.0188 h 0.09121 v 0.0743 h -0.09121 q -0.102797,0 -0.141889,-0.0381 -0.03909,-0.0386 -0.03909,-0.13995 v -0.29343 h -0.06515 v -0.069 h 0.06515 v -0.15347 z" />
              <path
                 inkscape:connector-curvature="0"
                 id="path1322"
                 style="stroke-width:0.02470982"
                 d="m 23.963768,279.90453 v 0.0434 h -0.408291 q 0.0058,0.0917 0.05502,0.13996 0.04971,0.0478 0.138027,0.0478 0.05116,0 0.09894,-0.0125 0.04826,-0.0126 0.09556,-0.0376 v 0.084 q -0.04778,0.0203 -0.09797,0.0309 -0.05019,0.0106 -0.101832,0.0106 -0.12934,0 -0.205111,-0.0753 -0.07529,-0.0753 -0.07529,-0.20366 0,-0.13272 0.07143,-0.21042 0.07191,-0.0782 0.193528,-0.0782 0.10907,0 0.172293,0.0705 0.06371,0.07 0.06371,0.19064 z m -0.0888,-0.0261 q -9.65e-4,-0.0729 -0.04102,-0.11631 -0.03957,-0.0434 -0.10521,-0.0434 -0.07432,0 -0.119206,0.042 -0.0444,0.042 -0.05116,0.11824 z" />
              <path
                 inkscape:connector-curvature="0"
                 id="path1324"
                 style="stroke-width:0.02470982"
                 d="m 24.541456,279.65646 -0.195458,0.26303 0.205593,0.2775 h -0.104727 l -0.157332,-0.21235 -0.157332,0.21235 h -0.104727 l 0.209937,-0.28281 -0.19208,-0.25772 h 0.104727 l 0.143336,0.19257 0.143336,-0.19257 z" />
              <path
                 inkscape:connector-curvature="0"
                 id="path1326"
                 style="stroke-width:0.02470982"
                 d="m 24.764906,279.50299 v 0.15347 h 0.182911 v 0.069 h -0.182911 v 0.29343 q 0,0.0661 0.01786,0.0849 0.01834,0.0188 0.07384,0.0188 h 0.09121 v 0.0743 h -0.09121 q -0.102797,0 -0.141889,-0.0381 -0.03909,-0.0386 -0.03909,-0.13995 v -0.29343 h -0.06515 v -0.069 h 0.06515 v -0.15347 z" />
            </g>
            <g
               id="text982"
               style="font-style:normal;font-weight:normal;font-size:0.98839295px;line-height:1.25;font-family:sans-serif;text-align:center;letter-spacing:0px;word-spacing:0px;text-anchor:middle;fill:#000000;fill-opacity:1;stroke:none;stroke-width:0.02470982"
               aria-label="Text text text">
              <path
                 inkscape:connector-curvature="0"
                 id="path1329"
                 style="stroke-width:0.02470982"
                 d="m 18.436392,281.37727 h 0.609542 v 0.082 h -0.255786 v 0.6385 h -0.09797 v -0.6385 h -0.255786 z" />
              <path
                 inkscape:connector-curvature="0"
                 id="path1331"
                 style="stroke-width:0.02470982"
                 d="m 19.431059,281.80534 v 0.0434 h -0.408291 q 0.0058,0.0917 0.05502,0.13996 0.04971,0.0478 0.138028,0.0478 0.05116,0 0.09893,-0.0125 0.04826,-0.0126 0.09556,-0.0376 v 0.084 q -0.04778,0.0203 -0.09797,0.0309 -0.05019,0.0106 -0.101831,0.0106 -0.129341,0 -0.205111,-0.0753 -0.07529,-0.0753 -0.07529,-0.20367 0,-0.13271 0.07143,-0.21042 0.07191,-0.0782 0.193528,-0.0782 0.109071,0 0.172293,0.0705 0.06371,0.07 0.06371,0.19063 z m -0.0888,-0.0261 q -9.65e-4,-0.0729 -0.04102,-0.11631 -0.03957,-0.0434 -0.10521,-0.0434 -0.07432,0 -0.119205,0.042 -0.0444,0.042 -0.05116,0.11824 z" />
              <path
                 inkscape:connector-curvature="0"
                 id="path1333"
                 style="stroke-width:0.02470982"
                 d="m 20.008748,281.55728 -0.195459,0.26303 0.205594,0.2775 h -0.104727 l -0.157332,-0.21235 -0.157332,0.21235 h -0.104728 l 0.209937,-0.28281 -0.19208,-0.25772 h 0.104727 l 0.143337,0.19256 0.143336,-0.19256 z" />
              <path
                 inkscape:connector-curvature="0"
                 id="path1335"
                 style="stroke-width:0.02470982"
                 d="m 20.232198,281.40381 v 0.15347 h 0.182911 v 0.069 h -0.182911 v 0.29342 q 0,0.0661 0.01786,0.0849 0.01834,0.0188 0.07384,0.0188 h 0.09121 v 0.0743 h -0.09121 q -0.102797,0 -0.141889,-0.0381 -0.03909,-0.0386 -0.03909,-0.13996 v -0.29342 h -0.06515 v -0.069 h 0.06515 v -0.15347 z" />
              <path
                 inkscape:connector-curvature="0"
                 id="path1337"
                 style="stroke-width:0.02470982"
                 d="m 20.934884,281.40381 v 0.15347 h 0.18291 v 0.069 h -0.18291 v 0.29342 q 0,0.0661 0.01786,0.0849 0.01834,0.0188 0.07384,0.0188 h 0.09121 v 0.0743 h -0.09121 q -0.102796,0 -0.141888,-0.0381 -0.03909,-0.0386 -0.03909,-0.13996 v -0.29342 h -0.06515 v -0.069 h 0.06515 v -0.15347 z" />
              <path
                 inkscape:connector-curvature="0"
                 id="path1339"
                 style="stroke-width:0.02470982"
                 d="m 21.697413,281.80534 v 0.0434 h -0.408291 q 0.0058,0.0917 0.05502,0.13996 0.04971,0.0478 0.138028,0.0478 0.05116,0 0.09894,-0.0125 0.04826,-0.0126 0.09556,-0.0376 v 0.084 q -0.04778,0.0203 -0.09797,0.0309 -0.05019,0.0106 -0.101831,0.0106 -0.129341,0 -0.205111,-0.0753 -0.07529,-0.0753 -0.07529,-0.20367 0,-0.13271 0.07143,-0.21042 0.07191,-0.0782 0.193528,-0.0782 0.109071,0 0.172293,0.0705 0.06371,0.07 0.06371,0.19063 z m -0.0888,-0.0261 q -9.66e-4,-0.0729 -0.04102,-0.11631 -0.03957,-0.0434 -0.105209,-0.0434 -0.07432,0 -0.119206,0.042 -0.0444,0.042 -0.05116,0.11824 z" />
              <path
                 inkscape:connector-curvature="0"
                 id="path1341"
                 style="stroke-width:0.02470982"
                 d="m 22.275102,281.55728 -0.195458,0.26303 0.205593,0.2775 H 22.18051 l -0.157332,-0.21235 -0.157332,0.21235 h -0.104728 l 0.209937,-0.28281 -0.19208,-0.25772 h 0.104727 l 0.143337,0.19256 0.143336,-0.19256 z" />
              <path
                 inkscape:connector-curvature="0"
                 id="path1343"
                 style="stroke-width:0.02470982"
                 d="m 22.498552,281.40381 v 0.15347 h 0.182911 v 0.069 h -0.182911 v 0.29342 q 0,0.0661 0.01786,0.0849 0.01834,0.0188 0.07384,0.0188 h 0.09121 v 0.0743 h -0.09121 q -0.102797,0 -0.141889,-0.0381 -0.03909,-0.0386 -0.03909,-0.13996 v -0.29342 h -0.06515 v -0.069 h 0.06515 v -0.15347 z" />
              <path
                 inkscape:connector-curvature="0"
                 id="path1345"
                 style="stroke-width:0.02470982"
                 d="m 23.201238,281.40381 v 0.15347 h 0.182911 v 0.069 h -0.182911 v 0.29342 q 0,0.0661 0.01786,0.0849 0.01834,0.0188 0.07384,0.0188 h 0.09121 v 0.0743 h -0.09121 q -0.102797,0 -0.141889,-0.0381 -0.03909,-0.0386 -0.03909,-0.13996 v -0.29342 h -0.06515 v -0.069 h 0.06515 v -0.15347 z" />
              <path
                 inkscape:connector-curvature="0"
                 id="path1347"
                 style="stroke-width:0.02470982"
                 d="m 23.963768,281.80534 v 0.0434 h -0.408291 q 0.0058,0.0917 0.05502,0.13996 0.04971,0.0478 0.138027,0.0478 0.05116,0 0.09894,-0.0125 0.04826,-0.0126 0.09556,-0.0376 v 0.084 q -0.04778,0.0203 -0.09797,0.0309 -0.05019,0.0106 -0.101832,0.0106 -0.12934,0 -0.205111,-0.0753 -0.07529,-0.0753 -0.07529,-0.20367 0,-0.13271 0.07143,-0.21042 0.07191,-0.0782 0.193528,-0.0782 0.10907,0 0.172293,0.0705 0.06371,0.07 0.06371,0.19063 z m -0.0888,-0.0261 q -9.65e-4,-0.0729 -0.04102,-0.11631 -0.03957,-0.0434 -0.10521,-0.0434 -0.07432,0 -0.119206,0.042 -0.0444,0.042 -0.05116,0.11824 z" />
              <path
                 inkscape:connector-curvature="0"
                 id="path1349"
                 style="stroke-width:0.02470982"
                 d="m 24.541456,281.55728 -0.195458,0.26303 0.205593,0.2775 h -0.104727 l -0.157332,-0.21235 -0.157332,0.21235 h -0.104727 l 0.209937,-0.28281 -0.19208,-0.25772 h 0.104727 l 0.143336,0.19256 0.143336,-0.19256 z" />
              <path
                 inkscape:connector-curvature="0"
                 id="path1351"
                 style="stroke-width:0.02470982"
                 d="m 24.764906,281.40381 v 0.15347 h 0.182911 v 0.069 h -0.182911 v 0.29342 q 0,0.0661 0.01786,0.0849 0.01834,0.0188 0.07384,0.0188 h 0.09121 v 0.0743 h -0.09121 q -0.102797,0 -0.141889,-0.0381 -0.03909,-0.0386 -0.03909,-0.13996 v -0.29342 h -0.06515 v -0.069 h 0.06515 v -0.15347 z" />
            </g>
            <g
               id="text986"
               style="font-style:normal;font-weight:normal;font-size:0.98839295px;line-height:1.25;font-family:sans-serif;text-align:center;letter-spacing:0px;word-spacing:0px;text-anchor:middle;fill:#000000;fill-opacity:1;stroke:none;stroke-width:0.02470982"
               aria-label="Text text text">
              <path
                 inkscape:connector-curvature="0"
                 id="path1354"
                 style="stroke-width:0.02470982"
                 d="m 18.436392,283.27808 h 0.609542 v 0.0821 h -0.255786 v 0.6385 h -0.09797 v -0.6385 h -0.255786 z" />
              <path
                 inkscape:connector-curvature="0"
                 id="path1356"
                 style="stroke-width:0.02470982"
                 d="m 19.431059,283.70616 v 0.0434 h -0.408291 q 0.0058,0.0917 0.05502,0.13996 0.04971,0.0478 0.138028,0.0478 0.05116,0 0.09893,-0.0125 0.04826,-0.0125 0.09556,-0.0376 v 0.084 q -0.04778,0.0203 -0.09797,0.0309 -0.05019,0.0106 -0.101831,0.0106 -0.129341,0 -0.205111,-0.0753 -0.07529,-0.0753 -0.07529,-0.20366 0,-0.13272 0.07143,-0.21042 0.07191,-0.0782 0.193528,-0.0782 0.109071,0 0.172293,0.0705 0.06371,0.07 0.06371,0.19063 z m -0.0888,-0.0261 q -9.65e-4,-0.0729 -0.04102,-0.11631 -0.03957,-0.0434 -0.10521,-0.0434 -0.07432,0 -0.119205,0.042 -0.0444,0.042 -0.05116,0.11824 z" />
              <path
                 inkscape:connector-curvature="0"
                 id="path1358"
                 style="stroke-width:0.02470982"
                 d="m 20.008748,283.4581 -0.195459,0.26302 0.205594,0.27751 h -0.104727 l -0.157332,-0.21235 -0.157332,0.21235 h -0.104728 l 0.209937,-0.28281 -0.19208,-0.25772 h 0.104727 l 0.143337,0.19256 0.143336,-0.19256 z" />
              <path
                 inkscape:connector-curvature="0"
                 id="path1360"
                 style="stroke-width:0.02470982"
                 d="m 20.232198,283.30463 v 0.15347 h 0.182911 v 0.069 h -0.182911 v 0.29343 q 0,0.0661 0.01786,0.0849 0.01834,0.0188 0.07384,0.0188 h 0.09121 v 0.0743 h -0.09121 q -0.102797,0 -0.141889,-0.0381 -0.03909,-0.0386 -0.03909,-0.13996 v -0.29343 h -0.06515 v -0.069 h 0.06515 v -0.15347 z" />
              <path
                 inkscape:connector-curvature="0"
                 id="path1362"
                 style="stroke-width:0.02470982"
                 d="m 20.934884,283.30463 v 0.15347 h 0.18291 v 0.069 h -0.18291 v 0.29343 q 0,0.0661 0.01786,0.0849 0.01834,0.0188 0.07384,0.0188 h 0.09121 v 0.0743 h -0.09121 q -0.102796,0 -0.141888,-0.0381 -0.03909,-0.0386 -0.03909,-0.13996 v -0.29343 h -0.06515 v -0.069 h 0.06515 v -0.15347 z" />
              <path
                 inkscape:connector-curvature="0"
                 id="path1364"
                 style="stroke-width:0.02470982"
                 d="m 21.697413,283.70616 v 0.0434 h -0.408291 q 0.0058,0.0917 0.05502,0.13996 0.04971,0.0478 0.138028,0.0478 0.05116,0 0.09894,-0.0125 0.04826,-0.0125 0.09556,-0.0376 v 0.084 q -0.04778,0.0203 -0.09797,0.0309 -0.05019,0.0106 -0.101831,0.0106 -0.129341,0 -0.205111,-0.0753 -0.07529,-0.0753 -0.07529,-0.20366 0,-0.13272 0.07143,-0.21042 0.07191,-0.0782 0.193528,-0.0782 0.109071,0 0.172293,0.0705 0.06371,0.07 0.06371,0.19063 z m -0.0888,-0.0261 q -9.66e-4,-0.0729 -0.04102,-0.11631 -0.03957,-0.0434 -0.105209,-0.0434 -0.07432,0 -0.119206,0.042 -0.0444,0.042 -0.05116,0.11824 z" />
              <path
                 inkscape:connector-curvature="0"
                 id="path1366"
                 style="stroke-width:0.02470982"
                 d="m 22.275102,283.4581 -0.195458,0.26302 0.205593,0.27751 H 22.18051 l -0.157332,-0.21235 -0.157332,0.21235 h -0.104728 l 0.209937,-0.28281 -0.19208,-0.25772 h 0.104727 l 0.143337,0.19256 0.143336,-0.19256 z" />
              <path
                 inkscape:connector-curvature="0"
                 id="path1368"
                 style="stroke-width:0.02470982"
                 d="m 22.498552,283.30463 v 0.15347 h 0.182911 v 0.069 h -0.182911 v 0.29343 q 0,0.0661 0.01786,0.0849 0.01834,0.0188 0.07384,0.0188 h 0.09121 v 0.0743 h -0.09121 q -0.102797,0 -0.141889,-0.0381 -0.03909,-0.0386 -0.03909,-0.13996 v -0.29343 h -0.06515 v -0.069 h 0.06515 v -0.15347 z" />
              <path
                 inkscape:connector-curvature="0"
                 id="path1370"
                 style="stroke-width:0.02470982"
                 d="m 23.201238,283.30463 v 0.15347 h 0.182911 v 0.069 h -0.182911 v 0.29343 q 0,0.0661 0.01786,0.0849 0.01834,0.0188 0.07384,0.0188 h 0.09121 v 0.0743 h -0.09121 q -0.102797,0 -0.141889,-0.0381 -0.03909,-0.0386 -0.03909,-0.13996 v -0.29343 h -0.06515 v -0.069 h 0.06515 v -0.15347 z" />
              <path
                 inkscape:connector-curvature="0"
                 id="path1372"
                 style="stroke-width:0.02470982"
                 d="m 23.963768,283.70616 v 0.0434 h -0.408291 q 0.0058,0.0917 0.05502,0.13996 0.04971,0.0478 0.138027,0.0478 0.05116,0 0.09894,-0.0125 0.04826,-0.0125 0.09556,-0.0376 v 0.084 q -0.04778,0.0203 -0.09797,0.0309 -0.05019,0.0106 -0.101832,0.0106 -0.12934,0 -0.205111,-0.0753 -0.07529,-0.0753 -0.07529,-0.20366 0,-0.13272 0.07143,-0.21042 0.07191,-0.0782 0.193528,-0.0782 0.10907,0 0.172293,0.0705 0.06371,0.07 0.06371,0.19063 z m -0.0888,-0.0261 q -9.65e-4,-0.0729 -0.04102,-0.11631 -0.03957,-0.0434 -0.10521,-0.0434 -0.07432,0 -0.119206,0.042 -0.0444,0.042 -0.05116,0.11824 z" />
              <path
                 inkscape:connector-curvature="0"
                 id="path1374"
                 style="stroke-width:0.02470982"
                 d="m 24.541456,283.4581 -0.195458,0.26302 0.205593,0.27751 h -0.104727 l -0.157332,-0.21235 -0.157332,0.21235 h -0.104727 l 0.209937,-0.28281 -0.19208,-0.25772 h 0.104727 l 0.143336,0.19256 0.143336,-0.19256 z" />
              <path
                 inkscape:connector-curvature="0"
                 id="path1376"
                 style="stroke-width:0.02470982"
                 d="m 24.764906,283.30463 v 0.15347 h 0.182911 v 0.069 h -0.182911 v 0.29343 q 0,0.0661 0.01786,0.0849 0.01834,0.0188 0.07384,0.0188 h 0.09121 v 0.0743 h -0.09121 q -0.102797,0 -0.141889,-0.0381 -0.03909,-0.0386 -0.03909,-0.13996 v -0.29343 h -0.06515 v -0.069 h 0.06515 v -0.15347 z" />
            </g>
            <g
               id="text990"
               style="font-style:normal;font-weight:normal;font-size:0.98839295px;line-height:1.25;font-family:sans-serif;text-align:center;letter-spacing:0px;word-spacing:0px;text-anchor:middle;fill:#000000;fill-opacity:1;stroke:none;stroke-width:0.02470982"
               aria-label="Text text text">
              <path
                 inkscape:connector-curvature="0"
                 id="path1379"
                 style="stroke-width:0.02470982"
                 d="m 18.436392,285.1789 h 0.609542 v 0.082 h -0.255786 v 0.63849 h -0.09797 v -0.63849 h -0.255786 z" />
              <path
                 inkscape:connector-curvature="0"
                 id="path1381"
                 style="stroke-width:0.02470982"
                 d="m 19.431059,285.60698 v 0.0434 h -0.408291 q 0.0058,0.0917 0.05502,0.13995 0.04971,0.0478 0.138028,0.0478 0.05116,0 0.09893,-0.0125 0.04826,-0.0125 0.09556,-0.0376 v 0.084 q -0.04778,0.0203 -0.09797,0.0309 -0.05019,0.0106 -0.101831,0.0106 -0.129341,0 -0.205111,-0.0753 -0.07529,-0.0753 -0.07529,-0.20366 0,-0.13272 0.07143,-0.21042 0.07191,-0.0782 0.193528,-0.0782 0.109071,0 0.172293,0.0705 0.06371,0.07 0.06371,0.19063 z m -0.0888,-0.0261 q -9.65e-4,-0.0729 -0.04102,-0.11631 -0.03957,-0.0434 -0.10521,-0.0434 -0.07432,0 -0.119205,0.042 -0.0444,0.042 -0.05116,0.11824 z" />
              <path
                 inkscape:connector-curvature="0"
                 id="path1383"
                 style="stroke-width:0.02470982"
                 d="m 20.008748,285.35892 -0.195459,0.26302 0.205594,0.2775 h -0.104727 l -0.157332,-0.21235 -0.157332,0.21235 h -0.104728 l 0.209937,-0.28281 -0.19208,-0.25771 h 0.104727 l 0.143337,0.19256 0.143336,-0.19256 z" />
              <path
                 inkscape:connector-curvature="0"
                 id="path1385"
                 style="stroke-width:0.02470982"
                 d="m 20.232198,285.20545 v 0.15347 h 0.182911 v 0.069 h -0.182911 v 0.29343 q 0,0.0661 0.01786,0.0849 0.01834,0.0188 0.07384,0.0188 h 0.09121 v 0.0743 h -0.09121 q -0.102797,0 -0.141889,-0.0381 -0.03909,-0.0386 -0.03909,-0.13996 v -0.29343 h -0.06515 v -0.069 h 0.06515 v -0.15347 z" />
              <path
                 inkscape:connector-curvature="0"
                 id="path1387"
                 style="stroke-width:0.02470982"
                 d="m 20.934884,285.20545 v 0.15347 h 0.18291 v 0.069 h -0.18291 v 0.29343 q 0,0.0661 0.01786,0.0849 0.01834,0.0188 0.07384,0.0188 h 0.09121 v 0.0743 h -0.09121 q -0.102796,0 -0.141888,-0.0381 -0.03909,-0.0386 -0.03909,-0.13996 v -0.29343 h -0.06515 v -0.069 h 0.06515 v -0.15347 z" />
              <path
                 inkscape:connector-curvature="0"
                 id="path1389"
                 style="stroke-width:0.02470982"
                 d="m 21.697413,285.60698 v 0.0434 h -0.408291 q 0.0058,0.0917 0.05502,0.13995 0.04971,0.0478 0.138028,0.0478 0.05116,0 0.09894,-0.0125 0.04826,-0.0125 0.09556,-0.0376 v 0.084 q -0.04778,0.0203 -0.09797,0.0309 -0.05019,0.0106 -0.101831,0.0106 -0.129341,0 -0.205111,-0.0753 -0.07529,-0.0753 -0.07529,-0.20366 0,-0.13272 0.07143,-0.21042 0.07191,-0.0782 0.193528,-0.0782 0.109071,0 0.172293,0.0705 0.06371,0.07 0.06371,0.19063 z m -0.0888,-0.0261 q -9.66e-4,-0.0729 -0.04102,-0.11631 -0.03957,-0.0434 -0.105209,-0.0434 -0.07432,0 -0.119206,0.042 -0.0444,0.042 -0.05116,0.11824 z" />
              <path
                 inkscape:connector-curvature="0"
                 id="path1391"
                 style="stroke-width:0.02470982"
                 d="m 22.275102,285.35892 -0.195458,0.26302 0.205593,0.2775 H 22.18051 l -0.157332,-0.21235 -0.157332,0.21235 h -0.104728 l 0.209937,-0.28281 -0.19208,-0.25771 h 0.104727 l 0.143337,0.19256 0.143336,-0.19256 z" />
              <path
                 inkscape:connector-curvature="0"
                 id="path1393"
                 style="stroke-width:0.02470982"
                 d="m 22.498552,285.20545 v 0.15347 h 0.182911 v 0.069 h -0.182911 v 0.29343 q 0,0.0661 0.01786,0.0849 0.01834,0.0188 0.07384,0.0188 h 0.09121 v 0.0743 h -0.09121 q -0.102797,0 -0.141889,-0.0381 -0.03909,-0.0386 -0.03909,-0.13996 v -0.29343 h -0.06515 v -0.069 h 0.06515 v -0.15347 z" />
              <path
                 inkscape:connector-curvature="0"
                 id="path1395"
                 style="stroke-width:0.02470982"
                 d="m 23.201238,285.20545 v 0.15347 h 0.182911 v 0.069 h -0.182911 v 0.29343 q 0,0.0661 0.01786,0.0849 0.01834,0.0188 0.07384,0.0188 h 0.09121 v 0.0743 h -0.09121 q -0.102797,0 -0.141889,-0.0381 -0.03909,-0.0386 -0.03909,-0.13996 v -0.29343 h -0.06515 v -0.069 h 0.06515 v -0.15347 z" />
              <path
                 inkscape:connector-curvature="0"
                 id="path1397"
                 style="stroke-width:0.02470982"
                 d="m 23.963768,285.60698 v 0.0434 h -0.408291 q 0.0058,0.0917 0.05502,0.13995 0.04971,0.0478 0.138027,0.0478 0.05116,0 0.09894,-0.0125 0.04826,-0.0125 0.09556,-0.0376 v 0.084 q -0.04778,0.0203 -0.09797,0.0309 -0.05019,0.0106 -0.101832,0.0106 -0.12934,0 -0.205111,-0.0753 -0.07529,-0.0753 -0.07529,-0.20366 0,-0.13272 0.07143,-0.21042 0.07191,-0.0782 0.193528,-0.0782 0.10907,0 0.172293,0.0705 0.06371,0.07 0.06371,0.19063 z m -0.0888,-0.0261 q -9.65e-4,-0.0729 -0.04102,-0.11631 -0.03957,-0.0434 -0.10521,-0.0434 -0.07432,0 -0.119206,0.042 -0.0444,0.042 -0.05116,0.11824 z" />
              <path
                 inkscape:connector-curvature="0"
                 id="path1399"
                 style="stroke-width:0.02470982"
                 d="m 24.541456,285.35892 -0.195458,0.26302 0.205593,0.2775 h -0.104727 l -0.157332,-0.21235 -0.157332,0.21235 h -0.104727 l 0.209937,-0.28281 -0.19208,-0.25771 h 0.104727 l 0.143336,0.19256 0.143336,-0.19256 z" />
              <path
                 inkscape:connector-curvature="0"
                 id="path1401"
                 style="stroke-width:0.02470982"
                 d="m 24.764906,285.20545 v 0.15347 h 0.182911 v 0.069 h -0.182911 v 0.29343 q 0,0.0661 0.01786,0.0849 0.01834,0.0188 0.07384,0.0188 h 0.09121 v 0.0743 h -0.09121 q -0.102797,0 -0.141889,-0.0381 -0.03909,-0.0386 -0.03909,-0.13996 v -0.29343 h -0.06515 v -0.069 h 0.06515 v -0.15347 z" />
            </g>
          </g>
        </g>
      </g>
      <ellipse
         ry="1.6383994"
         rx="1.6804094"
         cy="291.04825"
         cx="45.039188"
         id="path832"
         style="opacity:0.5;fill:#ffffff;fill-opacity:1;stroke:#000000;stroke-width:0.5054909;stroke-linejoin:bevel;stroke-miterlimit:4;stroke-dasharray:none;stroke-dashoffset:0;stroke-opacity:1" />
    </g>
    <rect
       ry="12.911174"
       y="270.54166"
       x="-5.2838132e-06"
       height="26.458349"
       width="66.145836"
       id="rect925"
       style="opacity:1;fill:url(#radialGradient933);fill-opacity:1;stroke:none;stroke-width:0.5;stroke-linejoin:bevel;stroke-miterlimit:4;stroke-dasharray:none;stroke-dashoffset:0;stroke-opacity:1" />
    <path
       style="opacity:1;fill:url(#linearGradient842);fill-opacity:1;stroke:none;stroke-width:0.42895228;stroke-linejoin:bevel;stroke-miterlimit:4;stroke-dasharray:none;stroke-dashoffset:0;stroke-opacity:1"
       d="m 12.974777,273.18747 h 40.196277 c 5.722235,0 10.328894,4.60671 10.328943,10.32894 l 2e-6,0.25441 c -2.645833,0 -4.60671,-0.0166 -10.328945,-0.0166 0,0 -26.797522,-0.0108 -40.196277,0 -3.4429846,0.003 -7.6831104,0.0166 -10.3289437,0.0166 l 0,-0.25441 c 0,-5.72223 4.6067086,-10.32894 10.3289437,-10.32894 z"
       id="rect833"
       inkscape:connector-curvature="0"
       sodipodi:nodetypes="ssscsacss" />
  </g>
</svg>
